<?xml version="1.0" standalone="no"?>
<!DOCTYPE svg PUBLIC "-//W3C//DTD SVG 20010904//EN"
 "http://www.w3.org/TR/2001/REC-SVG-20010904/DTD/svg10.dtd">
<svg version="1.0" xmlns="http://www.w3.org/2000/svg"
 width="1200.000000pt" height="630.000000pt" viewBox="0 0 1200.000000 630.000000"
 preserveAspectRatio="xMidYMid meet">
<metadata>
Created by potrace 1.15, written by Peter Selinger 2001-2017
</metadata>
<g transform="translate(0.000000,630.000000) scale(0.100000,-0.100000)"
fill="#000000" stroke="none">
<path d="M575 6280 c-3 -11 -3 -24 0 -30 9 -14 152 -110 164 -110 5 0 14 13
19 30 27 75 88 98 160 61 75 -38 96 -94 56 -148 -28 -37 -36 -37 -56 -3 -22
39 -68 42 -88 5 -11 -20 -10 -28 4 -50 13 -20 25 -25 55 -25 49 0 87 30 123
97 34 62 43 113 28 157 l-12 36 -112 0 -113 0 -26 -38 c-15 -21 -30 -52 -33
-70 -4 -17 -8 -32 -11 -32 -4 0 -65 43 -87 61 -5 4 1 24 14 43 l22 36 -51 0
c-41 0 -51 -4 -56 -20z"/>
<path d="M2110 6270 c0 -34 38 -80 65 -80 9 0 32 7 51 15 34 14 36 14 28 -3
-4 -9 -9 -36 -12 -59 -3 -35 0 -46 22 -67 50 -50 126 -26 193 62 39 52 46 117
15 145 -22 20 -122 23 -140 5 -9 -9 -12 -9 -12 0 0 7 -7 12 -16 12 -8 0 -13
-4 -10 -8 7 -12 -23 -52 -39 -52 -8 0 -30 14 -48 30 -23 20 -45 30 -66 30 -28
0 -31 -3 -31 -30z m285 -41 c47 -42 59 -64 45 -89 -21 -39 -48 -44 -89 -16
-20 14 -45 39 -55 56 -16 29 -17 33 -2 55 22 34 58 32 101 -6z"/>
<path d="M3812 6227 c-25 -82 -26 -89 -11 -104 8 -8 36 6 100 48 l89 59 -15
30 c-19 36 -35 47 -35 23 0 -11 -23 -32 -60 -56 -33 -20 -60 -35 -60 -32 0 3
11 28 25 55 23 45 24 50 8 50 -13 0 -24 -19 -41 -73z"/>
<path d="M4366 6278 c-23 -32 -20 -73 8 -104 31 -37 84 -38 121 -4 l25 23 0
-37 c0 -43 -14 -74 -44 -98 -11 -10 -16 -18 -10 -18 18 0 61 38 84 75 26 42
28 110 6 154 -14 26 -22 31 -52 31 -31 0 -35 -3 -29 -17 24 -58 28 -72 22 -87
-20 -51 -69 -18 -90 61 -13 49 -19 52 -41 21z"/>
<path d="M6064 6281 c-54 -33 -69 -112 -34 -180 47 -92 154 -61 175 51 9 47
-19 114 -56 133 -36 19 -48 19 -85 -4z"/>
<path d="M7467 6283 c3 -10 13 -26 22 -37 15 -17 15 -18 -5 -12 -29 9 -69 -11
-83 -41 -16 -36 10 -80 62 -104 61 -27 101 -25 126 7 27 34 26 46 -5 83 l-26
31 35 0 c41 0 60 19 55 57 -5 44 -38 42 -63 -4 -28 -53 -60 -53 -59 0 1 36 0
37 -32 37 -27 0 -32 -3 -27 -17z"/>
<path d="M8286 6272 c-38 -15 -71 -32 -73 -37 -2 -6 9 -18 24 -28 65 -40 68
-43 49 -72 -12 -19 -23 -24 -37 -20 -10 4 -19 4 -19 2 0 -10 98 -77 111 -77 8
0 7 4 -4 13 -16 11 -15 14 6 39 20 25 24 26 41 13 16 -12 17 -17 6 -32 -7 -10
2 -3 19 16 17 19 28 37 24 40 -3 3 -8 0 -10 -6 -6 -16 -25 -17 -41 -1 -9 9 2
30 43 89 30 43 55 81 55 84 0 3 -17 5 -37 5 -35 0 -41 -5 -83 -64 -48 -69 -48
-69 -104 -23 l-30 24 82 27 c45 15 82 30 82 32 0 10 -40 1 -104 -24z"/>
<path d="M10450 6270 c-25 -60 6 -141 62 -164 l30 -13 -41 -17 c-23 -9 -50
-16 -62 -16 -28 0 -90 27 -115 51 -13 12 -24 16 -28 11 -8 -13 64 -75 113 -98
20 -10 64 -20 99 -22 157 -11 273 125 210 248 l-23 45 -116 3 -116 3 -13 -31z
m232 3 c10 -9 18 -26 18 -38 0 -26 -63 -87 -116 -113 -32 -15 -38 -15 -62 -1
-45 24 -41 60 10 102 49 40 96 67 117 67 8 0 23 -7 33 -17z"/>
<path d="M5708 6274 c-51 -27 -64 -88 -27 -125 17 -17 30 -20 65 -16 29 3 44
1 44 -7 0 -19 -31 -57 -64 -78 -27 -17 -28 -19 -6 -13 76 22 120 66 127 128
11 96 -61 154 -139 111z"/>
<path d="M6418 6263 c26 -5 26 -12 11 -135 -11 -85 -12 -88 -38 -89 -25 -1
-25 -1 4 -9 50 -13 115 -19 115 -9 0 5 -9 9 -20 9 -11 0 -20 3 -20 8 0 4 7 52
15 107 8 55 15 106 15 113 0 8 -16 12 -52 11 -29 -1 -43 -4 -30 -6z"/>
<path d="M5348 6225 c-49 -27 -45 -88 8 -101 l25 -6 -21 -15 c-29 -20 -40 -53
-27 -81 29 -62 187 -26 187 43 0 28 -30 55 -61 55 l-24 0 28 25 c15 14 27 34
27 45 0 44 -86 65 -142 35z"/>
<path d="M9194 6230 c-32 -13 -64 -59 -64 -92 0 -43 27 -88 62 -103 l32 -13
-32 -16 c-39 -20 -88 -20 -126 -1 -38 20 -43 19 -21 -5 52 -57 193 -67 259
-16 93 70 88 189 -9 236 -44 21 -68 24 -101 10z m130 -49 c24 -26 14 -51 -39
-100 -49 -45 -60 -48 -93 -25 -32 22 -28 37 28 94 55 54 77 61 104 31z"/>
<path d="M9782 6230 c-80 -9 -102 -15 -102 -28 0 -5 18 -30 41 -56 44 -50 45
-65 3 -92 -25 -17 -27 -17 -40 1 -8 10 -17 16 -20 12 -6 -6 10 -28 78 -106 28
-31 55 -38 28 -7 -10 13 -7 20 17 40 34 31 35 31 58 6 15 -17 16 -22 4 -36
-13 -16 -12 -16 6 -7 27 15 61 53 47 53 -6 0 -14 -5 -17 -10 -8 -13 -22 -5
-35 20 -8 16 4 30 86 100 91 79 94 83 78 101 -19 21 -90 24 -232 9z"/>
<path d="M11127 6223 c-3 -5 14 -43 39 -83 51 -81 51 -79 -18 -116 -25 -13
-28 -12 -47 14 -12 16 -20 21 -21 13 0 -17 102 -190 113 -191 11 0 9 28 -3 35
-18 11 -11 22 32 50 l42 28 18 -23 c23 -28 23 -46 1 -59 -10 -5 -16 -12 -13
-15 3 -2 30 11 60 29 49 31 57 50 11 26 -14 -8 -21 -4 -35 20 -10 17 -16 32
-14 34 1 2 59 38 128 80 69 42 128 80 132 83 4 4 -1 17 -10 30 -14 17 -34 25
-82 32 -106 16 -326 24 -333 13z m295 -29 c5 -3 -35 -32 -89 -64 l-98 -58 -21
32 c-11 17 -31 49 -44 70 l-24 39 133 -6 c73 -4 137 -10 143 -13z"/>
<path d="M6760 6197 c-33 -17 -36 -70 -4 -75 29 -4 38 24 14 41 -24 17 -16 27
21 27 18 0 32 -7 39 -20 25 -46 -19 -103 -105 -135 -68 -27 -61 -49 23 -69 37
-9 75 -19 84 -22 16 -5 19 1 34 59 5 20 4 20 -9 5 -11 -14 -20 -15 -58 -6 -66
16 -66 24 -5 43 60 19 106 54 106 80 0 30 -21 57 -55 71 -42 17 -53 17 -85 1z"/>
<path d="M1230 6121 c-47 -81 -51 -100 -12 -52 l28 33 150 -102 c82 -57 151
-104 153 -106 3 -3 -5 -18 -17 -34 -24 -32 -27 -40 -14 -40 10 0 142 192 142
206 -1 5 -13 -6 -29 -24 l-28 -33 -161 111 c-88 60 -163 110 -166 110 -3 0
-23 -31 -46 -69z"/>
<path d="M3362 6152 c-23 -20 -42 -41 -42 -46 0 -5 9 -1 19 8 11 10 24 16 30
15 5 -2 45 -49 89 -104 l81 -100 -22 -17 c-12 -9 -19 -19 -17 -22 7 -6 139 96
140 108 0 4 -12 1 -26 -9 -16 -11 -29 -13 -33 -7 -14 23 -166 211 -171 211 -3
0 -24 -16 -48 -37z"/>
<path d="M7819 6141 c-17 -18 -29 -40 -29 -56 0 -33 50 -85 82 -85 22 -1 22
-1 -7 -26 -25 -21 -38 -25 -78 -21 -57 5 -50 -8 11 -21 101 -23 194 41 194
133 0 43 -16 72 -52 90 -46 24 -87 19 -121 -14z"/>
<path d="M2651 6143 c-14 -27 30 -276 51 -289 5 -4 29 13 53 36 l43 42 26 -18
c28 -21 32 -34 14 -52 -8 -8 -9 -12 -1 -12 14 0 103 98 103 113 0 5 -8 3 -18
-6 -17 -16 -20 -15 -40 6 -26 27 -27 40 -7 57 12 10 18 10 30 0 8 -7 15 -9 15
-4 -1 12 -60 70 -60 58 0 -6 5 -15 10 -20 7 -7 4 -16 -9 -29 -20 -17 -22 -16
-102 59 -44 42 -85 76 -89 76 -5 0 -13 -8 -19 -17z"/>
<path d="M4053 6128 c-46 -32 -60 -71 -39 -103 12 -19 25 -25 52 -25 l35 0
-22 -29 c-22 -31 -20 -58 7 -86 37 -37 149 5 174 66 12 27 11 36 -1 58 -12 20
-23 27 -56 29 l-41 3 16 28 c15 26 15 30 -1 55 -23 34 -78 36 -124 4z"/>
<path d="M7108 6099 c-22 -12 -23 -45 -3 -53 15 -5 39 26 28 38 -3 3 4 6 16 6
30 0 36 -22 16 -60 -15 -29 -19 -31 -53 -25 l-37 6 33 -20 c32 -21 40 -48 26
-85 -10 -26 -41 -38 -65 -26 -19 11 -20 13 -4 30 14 16 15 19 0 33 -21 21 -45
11 -45 -18 0 -36 44 -65 100 -65 78 0 106 56 54 105 l-27 25 30 0 c38 0 57 22
49 55 -11 42 -83 75 -118 54z"/>
<path d="M8714 6102 c-6 -4 -27 -26 -48 -49 l-38 -43 31 -29 c39 -37 40 -70 2
-110 -32 -35 -56 -39 -89 -15 -27 19 -28 30 -2 37 27 7 36 35 17 54 -18 18
-41 12 -56 -14 -24 -46 66 -133 138 -133 41 0 81 38 81 77 0 37 -33 90 -70
111 -35 20 -37 32 -12 55 25 23 28 22 79 -23 51 -45 72 -49 98 -20 18 19 17
20 -2 20 -11 0 -26 7 -33 15 -26 32 -86 73 -96 67z"/>
<path d="M4718 6030 c-21 -17 -44 -50 -54 -75 -16 -43 -16 -47 1 -90 35 -94
136 -101 181 -13 37 71 -46 140 -113 93 -19 -13 -22 -13 -27 1 -8 21 18 80 40
92 11 6 16 13 13 16 -3 3 -21 -8 -41 -24z"/>
<path d="M1833 5968 c-33 -46 -63 -88 -67 -95 -4 -7 9 -34 31 -62 38 -52 57
-61 33 -16 -12 22 -10 29 24 77 77 112 65 114 119 -21 55 -136 83 -171 122
-153 25 12 42 52 30 72 -4 6 -31 22 -60 35 -52 23 -55 26 -98 117 -24 51 -47
101 -50 111 -4 9 -10 17 -16 17 -5 0 -35 -37 -68 -82z"/>
<path d="M3745 5914 c-33 -25 -61 -51 -63 -57 -1 -7 4 -29 12 -48 14 -31 15
-32 16 -9 0 18 15 35 53 63 28 21 53 34 54 30 1 -4 5 -47 8 -96 8 -102 27
-138 63 -118 30 16 28 45 -4 70 -28 22 -53 79 -54 122 0 38 -11 89 -19 89 -3
0 -33 -21 -66 -46z"/>
<path d="M5865 5952 c-64 -4 -78 -16 -71 -61 3 -20 5 -39 6 -43 0 -5 16 -8 35
-8 28 0 38 -5 46 -24 14 -30 4 -75 -16 -77 -8 -1 -21 -2 -27 -3 -8 -1 -12 9
-10 27 3 21 -1 27 -16 27 -29 0 -35 -27 -11 -51 17 -17 29 -20 56 -16 57 10
83 32 83 72 0 45 -33 69 -89 63 -34 -3 -40 -1 -44 19 -6 30 -1 33 54 33 39 0
49 4 54 21 8 25 10 25 -50 21z"/>
<path d="M6186 5940 c-34 -11 -63 -36 -82 -72 -41 -79 26 -164 106 -136 35 12
50 35 50 77 0 37 -37 66 -75 59 -50 -10 -15 56 38 71 18 5 23 9 12 9 -11 0
-33 -4 -49 -8z"/>
<path d="M7441 5905 c-46 -24 -88 -48 -93 -53 -7 -7 4 -18 31 -31 22 -12 41
-27 41 -34 0 -22 -18 -40 -34 -34 -34 13 -14 -4 34 -28 59 -30 64 -31 48 -6
-9 15 -9 23 1 35 15 18 45 10 37 -10 -3 -8 -1 -14 4 -14 6 0 10 4 10 9 0 5 3
17 6 25 5 12 2 15 -10 10 -29 -11 -28 23 3 85 17 33 31 65 31 70 0 23 -33 16
-109 -24z"/>
<path d="M8159 5927 c-51 -35 -79 -82 -79 -136 1 -68 26 -96 87 -96 61 0 103
29 133 91 56 114 -40 209 -141 141z m122 -13 c16 -20 0 -51 -72 -142 -38 -48
-56 -62 -72 -60 -49 7 -21 78 71 180 38 42 53 46 73 22z"/>
<path d="M5542 5908 c-22 -28 -81 -157 -74 -162 5 -3 25 -1 45 3 20 5 38 6 41
3 12 -11 6 -35 -11 -49 -16 -12 -13 -13 22 -7 49 8 88 22 64 23 -22 1 -32 40
-12 48 8 3 19 0 24 -8 7 -12 9 -12 9 1 0 8 -5 22 -10 30 -6 10 -10 11 -10 3 0
-7 -6 -13 -14 -13 -14 0 -19 14 -31 98 -7 42 -23 54 -43 30z"/>
<path d="M3084 5896 c-128 -56 -47 -262 105 -268 132 -5 145 173 18 250 -45
28 -87 34 -123 18z m103 -101 c83 -84 96 -112 68 -135 -23 -19 -47 -4 -128 79
-75 77 -89 105 -65 129 23 23 44 11 125 -73z"/>
<path d="M4410 5901 c0 -4 -23 -22 -50 -39 l-51 -32 26 -50 c25 -50 26 -50 50
-34 36 24 67 14 90 -28 19 -36 19 -37 1 -57 -25 -27 -44 -27 -48 1 -4 27 -35
36 -44 14 -9 -23 14 -46 44 -46 36 0 88 35 102 71 34 81 -70 127 -142 63 -17
-16 -19 -16 -33 2 -21 27 -19 33 16 52 56 31 69 45 63 70 -6 21 -24 31 -24 13z"/>
<path d="M10171 5853 l-71 -45 30 -34 c16 -19 30 -45 30 -58 0 -44 -69 -106
-118 -106 -20 0 -55 34 -65 63 -5 14 -1 17 22 17 39 0 57 23 43 55 -13 28 -39
32 -67 11 -43 -31 -6 -135 68 -190 41 -30 107 -29 141 3 51 48 44 125 -20 199
l-35 41 38 25 37 25 43 -64 c53 -79 67 -88 113 -68 33 14 34 15 13 24 -12 4
-42 37 -65 73 -24 36 -48 67 -55 70 -6 3 -43 -16 -82 -41z"/>
<path d="M308 5836 c-13 -31 0 -66 84 -226 58 -111 84 -150 98 -150 4 0 24 34
46 76 35 67 41 74 62 69 38 -9 74 -37 68 -51 -4 -8 -9 -21 -12 -29 -3 -8 -2
-15 3 -15 11 0 106 191 98 198 -6 6 -21 -11 -28 -33 -4 -10 -84 22 -93 36 -3
5 2 22 11 39 14 26 18 29 36 19 11 -6 23 -8 26 -5 6 6 -92 56 -109 56 -7 -1
-1 -8 15 -16 26 -14 27 -16 12 -44 -9 -17 -20 -30 -25 -30 -6 0 -69 29 -140
65 -71 36 -132 65 -135 65 -3 0 -10 -11 -17 -24z m189 -173 l63 -34 -36 -72
c-34 -67 -37 -70 -51 -52 -16 21 -62 109 -99 187 l-23 48 42 -21 c23 -12 70
-37 104 -56z"/>
<path d="M5182 5834 c-23 -16 -29 -48 -11 -60 19 -11 35 14 22 36 -15 22 2 33
30 18 28 -14 22 -64 -10 -83 l-28 -16 32 6 c25 5 34 2 47 -17 22 -31 20 -65
-3 -78 -30 -16 -41 -12 -38 13 1 16 -3 22 -18 22 -30 0 -31 -33 -1 -46 48 -22
126 21 126 70 0 35 -17 51 -52 51 l-28 0 20 20 c23 23 26 50 8 68 -17 17 -69
15 -96 -4z"/>
<path d="M6752 5838 c-17 -17 -15 -48 5 -70 15 -17 15 -18 -5 -18 -11 0 -28
-7 -36 -16 -54 -53 46 -138 121 -102 36 17 43 60 13 85 l-21 18 22 5 c49 12
51 77 4 98 -34 15 -88 15 -103 0z"/>
<path d="M9630 5845 c0 -4 7 -16 15 -25 15 -16 7 -25 -98 -109 -63 -50 -118
-91 -122 -91 -4 0 -15 10 -25 23 -10 12 -21 20 -24 17 -3 -3 22 -41 55 -84 34
-42 64 -75 67 -72 3 3 -3 15 -14 27 -18 20 -18 21 3 37 121 95 233 187 233
192 0 3 -20 26 -45 50 -25 24 -45 40 -45 35z"/>
<path d="M10829 5816 c-88 -31 -145 -85 -169 -159 -23 -72 10 -143 80 -171 79
-31 169 -11 244 55 102 90 99 222 -7 270 -49 22 -97 23 -148 5z m188 -58 c39
-51 8 -86 -154 -170 -117 -62 -156 -70 -173 -39 -28 53 -12 69 160 163 104 57
149 69 167 46z"/>
<path d="M7753 5787 c-11 -12 -27 -33 -36 -46 -15 -23 -15 -25 16 -45 39 -27
43 -42 17 -83 -21 -35 -58 -44 -78 -20 -9 10 -6 18 10 31 18 16 19 19 5 33
-21 21 -47 9 -47 -22 0 -33 29 -61 80 -76 36 -11 44 -10 68 8 52 38 34 111
-34 139 -30 12 -33 17 -24 34 16 30 24 31 63 5 39 -27 67 -31 85 -13 15 15 16
32 2 23 -6 -4 -32 7 -59 24 l-49 30 -19 -22z"/>
<path d="M2315 5747 c-37 -37 -50 -74 -41 -111 11 -43 66 -38 66 6 0 18 -33
42 -44 31 -3 -3 -6 0 -6 9 0 8 9 23 20 33 18 16 20 16 54 -4 48 -30 62 -75 31
-101 -8 -7 -15 -20 -15 -28 0 -11 9 -6 29 16 39 42 77 43 120 3 37 -35 40 -69
8 -99 -28 -27 -37 -28 -37 -4 0 25 -19 42 -39 34 -37 -13 -40 -45 -7 -68 23
-14 28 -14 58 0 77 37 114 160 63 211 -31 31 -61 32 -106 1 l-36 -25 10 39
c24 87 -61 124 -128 57z"/>
<path d="M4910 5749 c-37 -15 -60 -39 -60 -64 0 -26 18 -45 36 -38 22 8 17 43
-6 43 -28 0 -25 18 6 32 23 11 29 10 45 -11 27 -32 24 -65 -10 -125 -42 -72
-31 -81 57 -48 67 25 71 28 65 52 -9 38 -16 46 -23 25 -3 -10 -28 -26 -54 -37
l-48 -18 36 49 c20 27 39 62 42 77 9 50 -35 83 -86 63z"/>
<path d="M8970 5748 c-135 -35 -151 -206 -24 -248 25 -9 40 -8 67 4 41 17 57
41 57 89 0 37 -39 87 -69 87 -11 1 -8 5 9 15 33 19 101 19 126 0 25 -19 40
-19 23 1 -35 42 -130 68 -189 52z"/>
<path d="M7052 5734 c-32 -22 -30 -76 4 -103 15 -12 33 -21 40 -21 7 0 11 -6
8 -14 -6 -15 -43 -32 -84 -39 -14 -2 -1 -5 28 -6 88 -2 142 43 142 119 0 65
-82 103 -138 64z"/>
<path d="M11650 5694 c-41 -20 -77 -37 -78 -39 -2 -2 8 -23 22 -48 33 -55 33
-87 1 -126 -33 -38 -111 -66 -148 -52 -28 11 -57 57 -57 90 0 17 5 18 40 14
36 -5 40 -3 50 21 21 55 -31 94 -79 59 -36 -27 -41 -97 -10 -159 62 -129 175
-166 255 -83 26 27 29 37 28 92 0 66 -18 112 -61 158 l-24 26 50 22 c27 11 53
21 58 20 4 0 28 -42 53 -92 43 -88 47 -92 80 -95 20 -2 44 4 55 12 18 14 18
15 2 16 -12 0 -32 29 -65 98 -56 116 -61 118 -172 66z"/>
<path d="M8535 5700 c17 -19 16 -21 -23 -67 -75 -89 -121 -128 -134 -115 -7 7
-17 12 -22 12 -6 0 14 -25 44 -55 30 -30 59 -55 64 -55 5 0 1 9 -9 20 -21 23
-26 15 105 153 l55 58 -40 35 c-43 37 -69 46 -40 14z"/>
<path d="M1005 5695 c-74 -26 -109 -99 -85 -178 25 -85 146 -167 244 -167 43
1 111 33 131 63 62 96 -11 237 -146 280 -62 20 -91 21 -144 2z m113 -101 c140
-73 172 -98 172 -133 0 -67 -41 -66 -178 5 -140 73 -172 98 -172 133 0 67 41
66 178 -5z"/>
<path d="M4082 5698 c-13 -13 -17 -218 -4 -218 4 0 24 11 44 25 l36 24 15 -23
c12 -18 13 -26 4 -36 -12 -13 -6 -10 61 31 24 15 30 32 9 23 -18 -7 -41 22
-33 42 3 9 13 14 21 11 12 -5 12 -2 3 18 -6 14 -16 25 -21 25 -5 0 -4 -6 2
-14 10 -11 8 -16 -5 -24 -15 -8 -26 1 -67 59 -26 38 -49 69 -51 69 -1 0 -7 -5
-14 -12z"/>
<path d="M3451 5672 c-11 -16 -26 -50 -32 -74 -34 -128 105 -238 191 -152 44
44 49 91 15 132 -34 41 -84 44 -120 7 -14 -13 -25 -30 -25 -37 -1 -7 -7 -2
-15 12 -19 33 -19 80 1 108 9 13 14 26 11 28 -3 3 -14 -8 -26 -24z"/>
<path d="M5619 5601 c-46 -46 -37 -123 21 -168 26 -21 57 -14 85 19 38 45 31
109 -15 151 -32 28 -54 31 -31 3 7 -8 13 -49 14 -92 2 -66 -1 -79 -15 -82 -12
-2 -20 7 -27 35 -15 51 -14 136 1 151 7 7 9 12 4 12 -4 0 -21 -13 -37 -29z"/>
<path d="M7352 5600 c-36 -22 -62 -72 -62 -120 0 -37 39 -80 72 -80 36 0 83
34 101 73 21 43 21 70 2 106 -23 46 -60 53 -113 21z"/>
<path d="M2754 5546 c-29 -29 -34 -41 -34 -81 0 -39 5 -52 30 -77 27 -26 36
-30 67 -25 41 7 83 42 83 70 0 30 23 14 39 -27 12 -30 12 -47 4 -80 -15 -55
-10 -56 16 -3 58 121 -8 257 -126 257 -38 0 -51 -6 -79 -34z"/>
<path d="M1543 5534 c-44 -100 -9 -232 75 -285 84 -53 178 -35 221 41 52 92 1
202 -93 202 -61 0 -118 -53 -118 -108 l0 -25 -29 27 c-39 38 -52 81 -40 135
13 56 6 62 -16 13z m224 -141 c71 -42 88 -89 41 -114 -42 -23 -168 52 -168 99
0 11 7 28 16 37 20 20 50 14 111 -22z"/>
<path d="M8023 5559 c-48 -14 -83 -62 -83 -114 0 -36 5 -48 31 -69 51 -43 116
-33 138 22 16 39 0 79 -40 96 l-31 13 23 17 c27 19 71 21 102 4 19 -10 20 -9
9 4 -7 9 -32 21 -57 27 -50 12 -49 12 -92 0z"/>
<path d="M6769 5483 c-35 -27 -64 -53 -66 -60 -2 -6 10 -14 26 -18 35 -8 44
-17 35 -38 -3 -10 -12 -13 -22 -10 -10 4 -13 2 -9 -3 5 -5 25 -14 45 -20 36
-10 38 -10 37 15 0 21 4 25 23 23 16 -2 22 2 21 15 0 10 -3 13 -5 6 -3 -7 -11
-10 -19 -7 -11 5 -10 17 4 69 26 93 19 95 -70 28z"/>
<path d="M5053 5466 c-24 -21 -26 -26 -15 -50 7 -16 20 -26 33 -26 21 0 21 -1
6 -18 -20 -22 -22 -53 -5 -70 19 -19 82 -14 112 9 43 34 30 89 -23 89 -23 0
-23 1 -8 18 53 58 -37 102 -100 48z"/>
<path d="M3795 5471 c-23 -10 -49 -38 -58 -63 -8 -23 16 -53 37 -45 23 9 20
38 -4 44 -20 5 -20 7 -4 24 20 22 49 11 66 -27 10 -21 8 -28 -13 -50 -25 -28
-23 -28 23 -5 24 12 31 12 52 -3 38 -24 45 -65 15 -89 -24 -19 -24 -19 -29 4
-8 34 -45 33 -45 -1 0 -52 78 -34 115 26 28 44 26 80 -5 100 -20 13 -31 14
-55 6 -34 -12 -33 -12 -21 21 7 18 5 30 -5 46 -16 22 -35 25 -69 12z"/>
<path d="M4311 5434 c-54 -68 9 -184 100 -184 45 0 69 27 69 78 0 100 -117
173 -169 106z"/>
<path d="M9295 5443 c-50 -18 -58 -26 -21 -21 26 3 35 -4 72 -52 27 -36 38
-57 31 -61 -7 -4 -52 -10 -102 -13 -94 -8 -135 -24 -135 -54 0 -47 50 -55 81
-13 28 38 55 49 153 61 44 5 81 12 84 15 3 2 -1 13 -9 24 -8 10 -32 44 -54 74
-22 31 -44 56 -50 55 -5 0 -28 -7 -50 -15z"/>
<path d="M9844 5425 c-20 -20 -23 -28 -14 -45 23 -43 79 -15 65 31 -9 26 19
25 45 -1 28 -28 25 -66 -6 -95 -43 -40 -85 -42 -184 -8 -73 26 -89 28 -105 17
-16 -12 -13 -20 41 -105 33 -51 62 -97 65 -102 4 -5 24 0 47 12 48 25 65 45
29 36 -21 -6 -29 2 -65 58 -23 35 -42 67 -42 70 0 4 26 -6 58 -22 113 -57 170
-63 212 -21 40 40 10 142 -53 180 -42 26 -63 25 -93 -5z"/>
<path d="M8756 5414 c-20 -19 -20 -38 -1 -54 25 -21 48 -4 41 30 -6 34 0 37
32 14 43 -30 17 -95 -44 -110 -15 -4 -57 -1 -95 5 -110 20 -115 5 -25 -93 l63
-69 34 32 c28 26 30 31 12 26 -17 -5 -30 3 -60 36 -21 23 -39 45 -41 49 -2 5
30 -1 71 -12 102 -28 157 -11 157 49 0 74 -100 142 -144 97z"/>
<path d="M3175 5408 c3 -8 -12 -35 -35 -60 -22 -25 -40 -50 -40 -56 0 -9 75
-82 84 -82 3 0 18 13 34 30 27 27 33 29 61 19 56 -20 77 -71 43 -102 -24 -22
-29 -21 -35 3 -6 24 -42 27 -51 4 -8 -22 11 -44 39 -44 55 0 117 98 96 152
-27 72 -120 59 -170 -24 l-18 -28 -23 24 -22 25 38 46 c32 40 36 50 28 72 -5
15 -15 28 -22 31 -7 2 -10 -2 -7 -10z"/>
<path d="M2044 5355 c-59 -63 -64 -145 -11 -175 32 -18 60 -5 65 28 5 30 -34
49 -57 28 -26 -23 -33 -20 -29 16 2 20 13 38 31 52 l28 21 36 -20 c56 -31 72
-60 84 -158 9 -70 16 -90 31 -98 11 -6 21 -9 23 -7 1 2 30 48 64 102 l61 100
-43 28 c-49 32 -68 36 -43 9 17 -19 16 -22 -26 -93 l-43 -73 -5 100 c-3 55 -9
107 -14 115 -43 72 -99 81 -152 25z"/>
<path d="M10339 5367 c-75 -40 -106 -118 -75 -190 57 -138 246 -116 246 29 0
28 -8 44 -34 70 -38 38 -32 44 43 44 40 0 54 -6 89 -36 50 -42 55 -30 10 22
-70 80 -192 106 -279 61z m127 -102 c22 -34 8 -52 -70 -90 -78 -39 -102 -38
-113 3 -9 35 5 52 72 88 63 34 88 34 111 -1z"/>
<path d="M5743 5335 c-54 -43 -53 -128 3 -153 42 -20 94 13 94 58 0 36 -22 53
-60 48 -39 -6 -41 22 -4 51 15 12 21 21 13 21 -8 0 -28 -11 -46 -25z"/>
<path d="M6238 5349 c-22 -12 -23 -37 -2 -60 14 -16 14 -18 -5 -24 -28 -9 -37
-42 -16 -65 23 -25 63 -33 97 -19 24 10 29 17 26 43 -4 43 -38 50 -38 8 0 -40
-25 -61 -47 -40 -13 14 -13 20 -1 44 7 16 20 29 28 30 32 2 39 5 54 20 21 20
20 30 -4 54 -21 21 -64 26 -92 9z"/>
<path d="M6492 5304 c-41 -28 -18 -104 32 -104 27 0 13 -23 -25 -42 -42 -21
-13 -24 35 -4 66 27 88 102 43 144 -27 26 -54 28 -85 6z"/>
<path d="M11255 5295 c4 -16 8 -36 9 -44 1 -8 -60 -41 -163 -87 -91 -41 -166
-74 -168 -74 -1 0 -10 17 -19 38 -9 20 -18 32 -21 25 -2 -6 12 -49 32 -95 21
-46 41 -93 46 -106 5 -13 13 -20 19 -17 6 4 4 17 -6 36 -8 17 -14 32 -12 34 2
1 83 38 181 81 97 43 177 83 177 88 0 6 -19 43 -41 81 -27 46 -38 60 -34 40z"/>
<path d="M7260 5261 c-38 -38 -47 -74 -26 -107 34 -51 106 -57 128 -9 16 36 2
74 -34 89 l-32 14 32 16 c20 10 43 14 59 10 22 -4 25 -3 13 5 -8 6 -37 11 -63
11 -40 0 -53 -5 -77 -29z"/>
<path d="M7898 5269 c-22 -13 -23 -48 -2 -56 21 -8 36 17 22 34 -18 22 -1 27
27 9 31 -21 32 -46 2 -74 -19 -18 -35 -22 -89 -22 -96 0 -100 -14 -24 -77 l63
-52 21 29 c18 24 19 27 4 24 -9 -2 -33 9 -52 26 l-35 29 71 -2 c79 -2 104 10
104 50 0 37 -18 63 -55 79 -40 16 -35 16 -57 3z"/>
<path d="M4054 5245 c-54 -54 -6 -151 61 -125 30 11 45 27 45 45 -1 6 -5 2
-11 -7 -16 -28 -37 -21 -69 24 -26 36 -29 44 -16 56 21 22 48 7 85 -47 34 -51
38 -82 16 -136 -5 -13 -1 -11 15 8 29 36 41 89 29 132 -20 72 -106 99 -155 50z"/>
<path d="M62 5232 c-37 -28 -62 -74 -62 -112 l1 -35 13 31 c8 17 21 34 29 37
22 8 80 -10 112 -35 23 -18 26 -27 23 -62 -3 -23 -8 -49 -12 -58 -6 -12 -4
-18 5 -18 8 1 23 20 34 43 28 59 59 74 118 57 26 -7 59 -24 73 -39 22 -21 25
-32 21 -64 -3 -21 -13 -47 -23 -58 -17 -19 -18 -18 -35 11 -20 32 -45 38 -71
18 -63 -50 11 -123 82 -82 37 22 77 99 86 165 13 96 -58 181 -136 164 -27 -6
-77 -52 -98 -90 -10 -17 -11 -12 -12 30 0 47 -17 88 -44 107 -20 14 -81 8
-104 -10z"/>
<path d="M6735 5224 c-64 -69 -25 -174 55 -149 27 9 60 62 60 96 0 36 -36 79
-66 79 -14 0 -36 -11 -49 -26z"/>
<path d="M2522 5222 c-104 -80 -63 -236 43 -166 l25 16 -11 -30 c-8 -24 -7
-37 5 -61 32 -62 106 -49 156 27 40 60 41 112 3 142 -29 23 -64 21 -94 -6 -23
-21 -25 -18 -21 25 3 31 0 42 -19 55 -30 21 -58 20 -87 -2z"/>
<path d="M3538 5224 c-48 -26 -74 -99 -43 -124 20 -17 50 -8 50 15 0 16 -6 20
-27 18 -33 -2 -37 16 -8 42 27 24 66 13 85 -26 11 -20 16 -52 14 -95 -4 -98
10 -102 81 -24 l58 65 -26 28 c-27 28 -54 39 -32 12 10 -12 6 -23 -25 -61 -20
-25 -39 -43 -41 -41 -3 2 0 24 5 48 16 67 13 104 -10 133 -23 29 -42 32 -81
10z"/>
<path d="M730 5148 c-48 -33 -69 -66 -76 -120 -19 -140 132 -224 223 -124 27
30 33 44 33 82 l0 47 32 -25 c48 -37 69 -84 66 -146 -3 -56 7 -69 19 -24 27
93 -7 225 -71 279 -69 58 -166 71 -226 31z m92 -76 c26 -12 55 -33 64 -48 16
-24 16 -29 3 -53 -20 -34 -55 -33 -138 4 -75 34 -88 53 -65 96 14 28 19 31 52
26 21 -3 58 -14 84 -25z"/>
<path d="M9032 5111 c-19 -12 -11 -45 11 -49 12 -3 20 4 24 17 7 26 12 26 29
4 18 -24 17 -29 -8 -53 -28 -26 -62 -25 -89 3 -20 20 -21 20 -14 2 18 -47 17
-72 -5 -93 -35 -33 -59 -34 -89 -4 -26 27 -26 27 -4 30 12 2 27 10 34 18 10
12 9 18 -5 32 -22 23 -50 5 -54 -36 -4 -35 44 -97 87 -113 57 -22 107 31 84
92 l-10 27 26 -16 c37 -21 79 -9 87 23 8 33 -12 80 -44 105 -27 22 -40 24 -60
11z"/>
<path d="M8546 5094 c-12 -11 -17 -28 -14 -49 l4 -31 -29 14 c-58 29 -104 -24
-77 -89 15 -36 68 -79 98 -79 26 0 62 33 62 56 0 8 -5 24 -11 35 -9 19 -9 19
10 10 32 -18 59 -13 76 13 14 21 14 28 2 58 -27 63 -89 95 -121 62z"/>
<path d="M9526 5079 c-23 -18 -27 -28 -24 -55 5 -40 4 -40 -29 -14 -55 43
-116 12 -115 -58 1 -68 51 -136 109 -148 26 -5 37 -1 59 21 23 23 25 32 20 67
l-7 40 27 -21 c33 -26 58 -27 84 -1 36 36 21 108 -32 156 -36 34 -61 37 -92
13z"/>
<path d="M11778 5075 c-151 -48 -192 -220 -76 -319 82 -70 187 -55 233 34 28
55 11 141 -35 173 -22 16 -22 16 14 22 20 4 47 4 61 1 23 -6 25 -4 25 28 0 30
-4 35 -42 51 -60 23 -125 27 -180 10z m106 -126 c34 -26 36 -72 4 -93 -27 -17
-99 -42 -150 -51 -29 -6 -40 -3 -57 14 -26 26 -27 63 -2 86 21 18 134 64 162
64 9 1 28 -8 43 -20z"/>
<path d="M1287 5062 c2 -10 -10 -48 -26 -86 -17 -37 -31 -74 -31 -82 0 -12
126 -84 149 -84 5 0 12 16 15 35 7 36 46 75 75 75 32 -1 101 -40 112 -63 9
-19 7 -32 -6 -61 -19 -40 -31 -45 -40 -17 -3 11 -15 23 -26 26 -48 16 -69 -56
-23 -77 74 -34 160 120 121 215 -19 44 -66 71 -111 63 -48 -9 -116 -87 -116
-133 0 -38 -15 -46 -51 -28 -19 10 -36 19 -38 21 -2 2 11 40 30 85 l34 81 -28
24 c-33 29 -47 31 -40 6z"/>
<path d="M2916 5073 c-12 -13 -5 -53 25 -140 35 -100 46 -116 60 -90 6 9 20
29 33 43 20 24 24 25 44 13 14 -9 20 -20 16 -31 -9 -30 2 -20 40 32 32 44 38
67 11 41 -6 -6 -19 -2 -34 10 -19 16 -21 22 -11 35 7 8 20 12 29 9 9 -3 5 4
-9 15 -14 11 -29 20 -35 20 -5 0 -3 -5 5 -10 13 -8 13 -11 -2 -26 -15 -16 -21
-14 -80 28 -80 57 -84 59 -92 51z"/>
<path d="M3825 5036 c-37 -37 -43 -75 -16 -97 16 -13 28 -16 45 -9 23 8 23 7
13 -20 -9 -24 -8 -32 8 -49 27 -30 66 -26 103 10 42 41 50 74 26 100 -14 16
-27 20 -51 16 -31 -5 -33 -4 -27 19 14 54 -56 75 -101 30z"/>
<path d="M8143 5044 c-3 -8 0 -21 6 -27 10 -9 16 -8 27 7 11 16 17 17 26 8 9
-9 10 -17 2 -29 -19 -30 -42 -39 -65 -25 -25 16 -36 10 -14 -8 22 -18 19 -43
-8 -68 -27 -26 -50 -28 -67 -7 -10 12 -8 18 10 33 20 16 21 19 6 31 -19 16
-46 -1 -46 -29 0 -32 57 -80 95 -80 56 0 71 26 49 85 -3 6 12 10 33 10 35 0
38 2 41 31 5 54 -77 114 -95 68z"/>
<path d="M5350 5011 c-19 -36 -12 -90 15 -116 71 -72 142 38 73 113 -27 28
-73 29 -88 3z"/>
<path d="M10111 5002 c-12 -23 4 -52 28 -52 10 0 25 10 34 23 l15 22 12 -27
c17 -36 7 -56 -36 -74 -45 -19 -70 -11 -90 28 -20 39 -29 29 -14 -16 6 -20 9
-45 5 -56 -7 -21 -72 -60 -99 -60 -21 0 -56 40 -56 64 0 17 6 21 32 21 23 0
34 5 36 18 8 40 -42 62 -72 31 -37 -36 -2 -137 63 -181 42 -29 71 -29 106 -1
25 19 27 26 23 75 l-5 54 27 -26 c51 -49 120 -24 120 44 0 87 -97 173 -129
113z"/>
<path d="M7760 4975 c-7 -8 -10 -26 -8 -39 5 -22 2 -24 -22 -20 -30 7 -60 -16
-60 -45 0 -49 80 -102 120 -81 19 10 22 18 17 49 -4 35 -3 36 27 36 27 0 31 4
34 31 2 25 -3 37 -28 58 -36 29 -62 33 -80 11z"/>
<path d="M3266 4900 c-25 -39 -26 -58 -1 -23 12 16 20 12 91 -41 103 -77 99
-73 84 -91 -7 -8 -11 -18 -8 -21 5 -5 88 100 88 112 0 4 -8 0 -18 -9 -17 -16
-24 -12 -107 48 -49 36 -92 65 -96 65 -3 0 -18 -18 -33 -40z"/>
<path d="M10705 4920 c-28 -5 -32 -8 -15 -9 14 -1 30 -5 37 -9 11 -7 77 -162
71 -167 -2 -1 -48 6 -103 16 -159 28 -215 23 -215 -22 0 -60 48 -77 97 -35 43
36 72 40 194 25 60 -7 111 -10 114 -8 2 3 -15 52 -39 110 -49 115 -50 116
-141 99z"/>
<path d="M1796 4912 c-2 -4 -14 -32 -25 -62 -21 -55 -21 -83 0 -36 7 14 18 26
24 26 16 0 265 -118 265 -126 0 -3 -5 -14 -11 -26 -6 -11 -8 -22 -5 -25 7 -8
88 157 83 170 -2 7 -10 0 -17 -15 -7 -16 -17 -28 -21 -28 -4 0 -67 29 -141 65
-138 68 -144 70 -152 57z"/>
<path d="M4113 4889 c-11 -11 3 -159 16 -172 5 -5 21 3 36 17 22 21 31 24 42
14 8 -6 11 -18 8 -27 -4 -10 4 -6 22 9 48 42 49 43 31 37 -9 -3 -22 1 -29 10
-11 13 -10 17 4 28 16 12 16 13 0 26 -9 8 -14 9 -10 3 4 -7 1 -17 -7 -23 -10
-9 -23 0 -59 38 -26 28 -49 45 -54 40z"/>
<path d="M2275 4813 c-22 -43 -40 -81 -40 -84 0 -9 61 -79 69 -79 4 0 0 10 -8
21 -13 20 -12 27 17 85 33 67 41 75 51 47 16 -40 111 -172 128 -176 22 -6 48
17 48 42 0 24 -20 41 -47 41 -39 0 -71 28 -119 106 -25 41 -49 74 -53 74 -4 0
-24 -35 -46 -77z"/>
<path d="M4939 4845 c-47 -25 -48 -75 -2 -75 21 0 23 -3 13 -14 -6 -8 -10 -25
-8 -38 6 -46 97 -29 113 22 8 25 -10 50 -35 50 -13 0 -17 6 -13 20 6 22 -12
50 -31 50 -6 -1 -23 -7 -37 -15z"/>
<path d="M8730 4800 c-12 -12 -20 -33 -20 -53 0 -19 8 -42 20 -55 28 -29 26
-32 -22 -32 -29 0 -49 7 -65 22 -13 12 -23 17 -23 11 0 -17 58 -62 88 -69 15
-3 32 -7 39 -9 46 -14 133 52 133 101 0 81 -98 136 -150 84z"/>
<path d="M7145 4779 c-4 -5 -4 -22 -1 -35 5 -17 3 -23 -4 -19 -5 3 -19 3 -30
0 -27 -9 -26 -49 2 -75 42 -39 113 -16 89 29 -9 17 -8 20 12 23 28 4 35 43 11
69 -18 20 -69 26 -79 8z"/>
<path d="M8263 4764 c-9 -4 -5 -16 14 -40 24 -32 25 -36 10 -51 -14 -14 -18
-14 -33 -2 -16 13 -16 12 -6 -6 18 -31 65 -82 59 -63 -8 23 25 52 41 36 9 -9
9 -15 -1 -26 -10 -13 -9 -14 10 -4 29 16 37 30 16 28 -34 -2 -22 23 29 64 29
23 53 47 53 53 0 12 -167 21 -192 11z"/>
<path d="M11362 4725 c-23 -29 -19 -61 9 -76 31 -16 59 6 59 46 0 41 12 44 45
10 37 -36 34 -86 -7 -120 -29 -24 -38 -27 -94 -23 -56 3 -71 10 -149 62 -67
44 -93 56 -111 52 -13 -4 -24 -11 -24 -17 0 -10 80 -271 85 -277 4 -5 135 33
135 40 0 4 -15 8 -32 10 -32 3 -34 6 -64 96 -17 50 -29 92 -27 92 2 0 40 -29
84 -65 114 -93 161 -110 219 -80 39 20 52 47 52 105 -1 124 -121 220 -180 145z"/>
<path d="M2700 4711 c-33 -33 -48 -77 -33 -100 12 -19 42 -26 54 -14 16 16 -1
42 -28 45 l-25 3 19 24 20 25 34 -20 c35 -21 41 -44 24 -89 -4 -12 4 -6 20 13
24 29 32 33 58 28 62 -12 87 -65 48 -100 -17 -16 -19 -16 -24 4 -6 24 -29 26
-47 5 -10 -12 -10 -18 0 -30 29 -35 86 -5 109 58 16 42 13 71 -10 101 -26 33
-59 33 -96 2 l-29 -24 4 32 c8 65 -49 86 -98 37z"/>
<path d="M9110 4736 c0 -4 9 -24 20 -46 25 -49 25 -57 -2 -71 -18 -10 -24 -8
-35 7 -22 30 -15 2 15 -53 27 -52 44 -70 36 -35 -3 10 4 22 17 31 20 12 24 11
36 -5 10 -14 10 -19 1 -25 -7 -5 -10 -10 -8 -12 3 -2 19 5 35 15 17 11 22 18
13 14 -11 -3 -21 2 -28 14 -9 17 -2 24 65 61 41 22 78 45 81 51 16 25 -37 42
-168 53 -43 4 -78 4 -78 1z"/>
<path d="M4336 4714 c-46 -46 7 -144 78 -144 72 0 90 68 32 126 -38 38 -83 45
-110 18z"/>
<path d="M9714 4700 c-53 -21 -70 -96 -34 -143 27 -34 26 -37 -16 -37 -43 0
-72 14 -101 48 -13 15 -23 22 -23 15 0 -7 14 -28 32 -48 89 -103 225 -99 283
7 18 35 19 40 5 80 -24 67 -88 102 -146 78z"/>
<path d="M3104 4630 c-50 -20 -71 -101 -38 -148 33 -48 133 -16 134 42 1 19 3
18 26 -8 22 -25 25 -36 21 -70 l-6 -41 14 30 c30 65 7 141 -54 182 -36 24 -62
28 -97 13z"/>
<path d="M511 4579 c-18 -18 -37 -53 -47 -86 -27 -93 -1 -158 67 -169 32 -5
42 -2 78 31 32 30 41 34 40 19 -5 -46 3 -73 25 -97 71 -76 167 -23 201 111 21
81 8 134 -38 162 -57 35 -109 20 -146 -42 l-18 -29 -6 42 c-12 89 -95 120
-156 58z m60 -65 c30 -9 60 -21 67 -26 17 -14 15 -53 -3 -68 -18 -15 -79 -9
-121 11 -34 17 -43 58 -19 83 20 19 10 19 76 0z m248 -65 c42 -18 43 -20 38
-56 -4 -20 -11 -41 -16 -46 -16 -16 -70 -10 -119 15 -39 19 -48 28 -50 55 -2
23 3 35 20 47 26 19 58 15 127 -15z"/>
<path d="M0 4543 c0 -49 4 -63 22 -79 11 -10 45 -69 73 -130 45 -95 57 -112
80 -116 32 -7 26 -19 74 166 l38 148 -22 8 c-12 4 -45 15 -73 24 -42 12 -52
12 -52 2 0 -8 11 -17 25 -20 14 -4 25 -11 25 -17 0 -14 -51 -213 -55 -217 -2
-2 -17 38 -33 90 -32 102 -62 167 -86 187 -14 12 -16 7 -16 -46z"/>
<path d="M3440 4551 c-15 -29 -12 -98 5 -131 31 -59 109 -77 150 -35 31 30 34
93 7 118 -38 35 -112 10 -112 -36 0 -9 -4 -17 -8 -17 -17 0 -34 49 -30 84 5
41 3 44 -12 17z"/>
<path d="M8122 4540 c-18 -11 -39 -35 -48 -54 -14 -29 -15 -37 -3 -62 12 -25
20 -29 62 -32 43 -3 51 0 82 31 83 83 7 178 -93 117z"/>
<path d="M8537 4539 c-21 -11 -37 -23 -35 -27 2 -4 10 -19 17 -35 13 -25 12
-29 -9 -52 -25 -27 -59 -32 -78 -13 -18 18 -15 39 6 36 11 -2 18 5 20 20 3 20
0 23 -20 20 -63 -9 -7 -128 60 -128 60 0 80 55 42 118 -24 40 -24 39 -2 51 16
8 24 3 50 -34 33 -48 38 -50 62 -35 13 8 13 11 -1 22 -9 7 -26 28 -38 46 -26
37 -25 37 -74 11z"/>
<path d="M4151 4524 c-25 -32 -26 -52 -5 -82 20 -30 58 -28 83 4 l20 25 11
-21 c8 -16 9 -30 1 -53 -10 -29 -9 -30 4 -13 24 32 29 80 11 114 -30 58 -90
70 -125 26z"/>
<path d="M1074 4515 c-5 -21 3 -40 42 -98 69 -101 133 -177 148 -177 8 0 21
26 31 65 10 36 21 65 24 65 3 0 23 -5 44 -11 34 -9 37 -12 31 -37 -4 -18 -3
-24 3 -17 16 15 55 143 49 158 -3 7 -7 3 -12 -11 -4 -15 -12 -21 -21 -18 -8 4
-26 9 -39 12 -24 6 -31 28 -16 52 5 7 16 10 25 6 9 -3 17 -2 17 3 0 6 -17 15
-39 21 -50 15 -60 15 -38 -2 24 -18 13 -71 -12 -61 -9 4 -59 20 -111 37 -52
17 -100 33 -107 35 -7 3 -15 -7 -19 -22z"/>
<path d="M10150 4529 c0 -8 9 -37 20 -66 l19 -52 -35 -11 c-31 -11 -37 -10
-49 7 -22 28 -18 3 11 -68 29 -73 37 -85 32 -49 -2 20 3 26 30 34 26 7 36 6
43 -5 13 -21 11 -39 -6 -39 -8 0 -15 -4 -15 -9 0 -9 19 -3 80 23 8 3 5 4 -8 2
-18 -3 -25 2 -33 21 -5 14 -8 27 -7 28 2 1 51 18 109 39 94 33 106 40 102 57
-6 23 -22 30 -139 64 -120 35 -154 40 -154 24z"/>
<path d="M1670 4502 c-153 -68 -69 -263 114 -266 63 0 118 29 136 75 27 64
-34 162 -117 187 -43 13 -108 15 -133 4z m91 -81 c127 -43 151 -57 147 -88 -7
-57 -52 -53 -225 19 -66 27 -73 33 -73 57 0 15 3 31 7 34 13 14 61 6 144 -22z"/>
<path d="M8905 4496 c-46 -20 -85 -71 -85 -111 0 -48 27 -76 80 -82 56 -5 106
19 137 66 31 46 29 77 -6 112 -33 32 -75 37 -126 15z"/>
<path d="M7494 4482 c-67 -54 -45 -145 31 -126 54 14 95 100 63 132 -17 17
-70 14 -94 -6z"/>
<path d="M2095 4417 c-17 -111 61 -217 160 -217 51 0 89 23 110 66 41 87 -35
186 -118 155 -35 -13 -69 -69 -62 -99 5 -21 4 -22 -15 -12 -36 19 -62 71 -56
113 6 52 -11 47 -19 -6z"/>
<path d="M3750 4447 c-56 -28 -67 -117 -15 -117 15 0 25 6 25 14 0 22 -19 30
-35 16 -12 -10 -15 -9 -15 7 0 24 18 43 41 43 28 0 56 -46 64 -105 3 -30 10
-57 15 -60 5 -3 27 21 49 53 l40 59 -23 22 c-25 24 -45 29 -27 7 10 -11 7 -22
-11 -50 -13 -20 -25 -36 -28 -36 -3 0 -4 19 -2 43 6 79 -30 128 -78 104z"/>
<path d="M9410 4411 c-49 -20 -50 -22 -32 -64 16 -37 1 -64 -44 -83 -37 -16
-67 -8 -78 22 -10 27 -7 34 19 34 31 0 43 26 23 47 -26 26 -58 1 -58 -46 0
-76 73 -145 129 -121 51 21 64 76 31 140 -11 22 -20 41 -20 44 0 2 13 9 29 14
28 10 29 9 54 -49 21 -50 30 -59 51 -59 13 0 28 5 31 10 3 6 2 10 -3 10 -5 0
-21 27 -35 60 -15 33 -32 60 -39 59 -7 0 -33 -8 -58 -18z"/>
<path d="M10865 4405 c-18 -17 -25 -35 -25 -62 l0 -38 -20 32 c-35 58 -98 71
-147 29 -25 -22 -28 -31 -27 -83 1 -136 102 -227 179 -160 18 15 28 36 32 64
l5 42 25 -30 c20 -23 33 -29 63 -29 52 0 80 35 80 99 -1 123 -98 204 -165 136z
m-41 -114 c40 -45 -11 -98 -99 -104 -34 -2 -39 1 -51 29 -17 40 -4 59 51 79
55 19 79 18 99 -4z"/>
<path d="M2547 4379 c-39 -23 -60 -106 -37 -150 13 -24 65 -26 74 -3 7 19 -10
44 -31 44 -7 0 -16 -7 -19 -15 -10 -25 -24 -17 -24 15 0 20 8 34 24 45 21 14
28 14 59 1 40 -16 58 -45 78 -124 8 -31 21 -58 31 -63 16 -8 21 -4 34 28 9 21
24 58 35 82 26 59 25 65 -16 84 -45 22 -52 21 -33 0 14 -16 13 -24 -6 -76 -21
-54 -36 -65 -36 -26 0 10 -5 41 -11 70 -18 81 -69 119 -122 88z"/>
<path d="M3991 4324 c-13 -16 -21 -39 -19 -53 2 -22 8 -26 33 -26 26 0 31 -4
35 -30 4 -27 9 -30 40 -30 28 0 38 6 57 34 28 41 28 43 4 72 -16 20 -22 22
-44 12 -24 -11 -26 -10 -29 15 -4 40 -48 43 -77 6z"/>
<path d="M2920 4300 c-31 -34 -42 -80 -26 -113 14 -27 58 -34 79 -13 21 22 25
20 19 -9 -10 -57 65 -87 105 -42 47 52 57 113 23 147 -25 25 -41 25 -74 -1
l-26 -20 0 25 c0 25 -32 56 -58 56 -8 0 -27 -13 -42 -30z"/>
<path d="M7944 4316 c-44 -20 -62 -71 -36 -106 21 -28 74 -39 98 -19 19 16 18
58 -2 81 -16 16 -15 18 1 25 11 3 30 0 47 -10 15 -9 28 -12 28 -7 0 11 -73 50
-92 50 -7 -1 -27 -7 -44 -14z"/>
<path d="M11842 4294 c-41 -28 -20 -114 29 -114 8 0 40 12 71 27 43 21 57 33
57 50 1 18 -8 25 -51 38 -65 19 -78 19 -106 -1z"/>
<path d="M3262 4237 c-12 -29 -22 -55 -22 -59 0 -7 73 -48 85 -48 3 0 10 11
15 25 13 33 33 40 70 25 34 -14 47 -44 29 -66 -10 -13 -14 -13 -29 1 -15 14
-18 14 -30 0 -11 -13 -11 -19 3 -32 14 -15 18 -15 41 0 36 24 55 91 35 126
-29 52 -89 40 -122 -24 -21 -42 -24 -44 -42 -31 -19 14 -19 15 -2 50 20 43 21
60 5 74 -10 8 -19 -3 -36 -41z"/>
<path d="M9805 4267 c-48 -27 -85 -79 -85 -119 0 -39 54 -94 102 -103 115 -22
239 96 194 183 -33 64 -134 82 -211 39z m199 -49 c19 -31 -6 -51 -105 -85
-114 -40 -153 -40 -157 -1 -4 32 9 40 128 80 94 31 118 32 134 6z"/>
<path d="M8621 4246 c-55 -31 -65 -93 -22 -137 52 -52 121 -30 121 39 0 17 -7
37 -15 45 -35 36 32 37 74 1 38 -32 41 -17 4 18 -54 50 -112 62 -162 34z"/>
<path d="M9164 4169 c1 -17 -15 -27 -94 -59 -96 -38 -110 -40 -110 -14 0 8 -4
14 -10 14 -10 0 -6 -15 29 -90 12 -28 19 -36 18 -22 -2 20 10 27 103 64 58 22
106 42 108 43 4 3 -37 85 -41 85 -2 0 -3 -9 -3 -21z"/>
<path d="M11566 4144 c-9 -8 -16 -22 -16 -29 0 -16 27 -45 43 -45 6 0 21 10
34 21 l22 22 11 -29 c16 -42 0 -69 -50 -82 -65 -16 -105 6 -116 64 -10 53 -26
40 -18 -14 5 -42 3 -52 -18 -77 -20 -23 -35 -29 -79 -32 -70 -6 -89 8 -96 71
l-6 48 30 -15 c27 -14 32 -14 52 -1 26 19 27 45 1 69 -42 38 -100 -12 -100
-88 0 -54 28 -121 66 -158 27 -27 43 -34 74 -34 57 0 90 36 99 106 5 42 9 49
15 32 11 -32 64 -73 94 -73 51 1 82 43 82 112 -1 100 -76 180 -124 132z"/>
<path d="M10442 4083 c-52 -12 -62 -18 -56 -32 16 -36 16 -88 0 -104 -24 -24
-83 -38 -112 -27 -26 10 -48 54 -40 77 5 11 10 11 26 3 38 -20 68 28 38 58
-31 31 -78 -9 -78 -65 0 -45 29 -110 59 -138 34 -30 94 -26 128 8 23 22 27 35
27 79 0 30 -8 67 -17 84 l-16 32 39 10 c22 5 42 7 44 3 2 -3 9 -31 16 -61 18
-80 25 -90 66 -90 33 0 34 1 20 23 -8 12 -20 45 -27 72 -15 63 -26 85 -42 84
-7 -1 -40 -8 -75 -16z"/>
<path d="M355 4028 c-23 -97 -40 -229 -31 -236 30 -23 108 -63 113 -58 3 3 -6
15 -20 28 l-25 23 18 95 c10 52 18 96 19 98 1 2 45 -37 100 -86 115 -105 153
-129 186 -114 29 13 40 58 22 86 -12 18 -24 21 -84 21 -79 0 -96 9 -211 110
-35 30 -67 55 -72 55 -5 0 -12 -10 -15 -22z"/>
<path d="M1509 4027 c-64 -43 -75 -134 -23 -196 31 -37 71 -47 116 -28 40 17
73 75 64 113 -9 33 7 30 50 -8 27 -26 37 -44 43 -83 7 -47 8 -48 16 -21 11 39
-10 122 -42 168 -50 73 -158 100 -224 55z m103 -66 c29 -11 45 -48 34 -77 -5
-14 -16 -16 -63 -10 -73 8 -107 25 -111 54 -6 39 16 55 68 49 25 -3 57 -10 72
-16z"/>
<path d="M9454 4036 c-110 -48 -89 -205 27 -206 51 0 83 36 77 87 -3 21 -8 46
-12 56 -18 41 79 4 106 -41 13 -20 18 -23 18 -9 0 28 -78 105 -119 117 -46 13
-59 12 -97 -4z"/>
<path d="M1955 4020 c3 -10 -1 -44 -10 -75 -9 -31 -15 -62 -12 -69 4 -10 105
-46 130 -46 4 0 7 14 7 30 0 60 59 87 120 55 24 -13 30 -22 30 -50 0 -40 -12
-50 -38 -34 -25 16 -52 5 -52 -21 0 -48 74 -36 96 15 35 84 6 168 -62 181 -55
10 -114 -64 -114 -144 0 -19 -3 -20 -32 -10 -18 6 -34 12 -36 13 -2 1 5 32 14
69 18 71 13 89 -27 99 -16 4 -19 2 -14 -13z"/>
<path d="M983 4020 c-50 -20 -86 -125 -63 -181 21 -50 90 -48 90 3 0 21 -40
41 -54 27 -18 -16 -26 -10 -26 20 0 39 22 55 66 48 54 -9 74 -32 74 -84 0 -27
4 -42 10 -38 6 3 10 14 10 24 0 10 9 30 21 45 16 21 29 26 63 26 78 0 119 -59
85 -122 -11 -20 -11 -20 -26 2 -10 14 -23 20 -41 18 -22 -2 -27 -8 -27 -32 0
-62 73 -59 106 4 21 39 26 134 8 173 -13 28 -58 57 -89 57 -26 0 -90 -60 -91
-86 0 -11 -7 2 -15 28 -11 35 -23 52 -44 63 -16 8 -30 15 -32 14 -2 0 -13 -4
-25 -9z"/>
<path d="M2372 3923 c-11 -48 -6 -77 5 -35 3 12 8 22 11 22 3 0 56 -14 118
-32 l113 -31 -6 -31 c-3 -17 -3 -28 1 -25 9 9 48 151 42 156 -2 2 -7 -5 -11
-16 -8 -27 -10 -27 -135 9 -58 17 -110 30 -117 30 -6 0 -16 -21 -21 -47z"/>
<path d="M3140 3952 c0 -21 90 -155 104 -156 5 -1 15 15 21 34 6 19 17 35 23
34 27 -2 31 -5 35 -21 3 -14 6 -12 15 10 12 29 27 91 16 70 -7 -16 -40 -17
-50 -1 -4 6 1 17 11 25 11 7 14 13 8 13 -6 0 -20 3 -30 6 -12 4 -14 3 -6 -3 7
-5 9 -14 4 -22 -7 -11 -20 -10 -72 8 -76 26 -79 26 -79 3z"/>
<path d="M3460 3920 c-73 -73 71 -184 154 -119 36 29 34 63 -8 105 -29 29 -41
34 -80 34 -33 0 -52 -6 -66 -20z"/>
<path d="M10954 3891 c-56 -34 -70 -125 -27 -173 18 -20 17 -20 -27 -13 -54 9
-102 43 -120 84 -16 41 -31 40 -20 -1 23 -78 93 -148 171 -169 142 -38 263 88
201 211 -35 71 -116 99 -178 61z m174 -109 c4 -42 -30 -63 -112 -69 -58 -5
-64 -4 -80 18 -9 13 -16 29 -16 36 0 21 45 43 106 51 77 11 98 3 102 -36z"/>
<path d="M116 3861 l-6 -38 -42 8 c-69 13 -68 13 -68 -40 0 -53 8 -61 62 -61
29 0 29 -1 27 -47 -2 -27 1 -48 6 -48 8 0 42 189 44 248 2 33 -17 17 -23 -22z"/>
<path d="M3741 3857 c-1 -41 4 -53 28 -78 55 -55 131 -34 131 37 0 38 -22 64
-54 64 -27 0 -56 -29 -56 -55 0 -18 -1 -18 -16 -3 -9 9 -20 31 -24 49 -8 33
-8 32 -9 -14z"/>
<path d="M8242 3888 c-7 -7 -12 -20 -12 -30 0 -16 -2 -16 -31 0 -29 17 -31 16
-49 -6 -21 -25 -14 -70 16 -103 31 -35 74 -17 74 30 0 24 0 24 21 5 48 -43 82
44 35 91 -28 28 -37 30 -54 13z"/>
<path d="M10111 3843 c-1 -18 -3 -33 -6 -33 -3 0 -58 -11 -122 -25 -65 -14
-123 -23 -130 -21 -7 3 -13 15 -13 26 0 11 -5 20 -11 20 -6 0 -8 -8 -5 -17 3
-10 12 -51 21 -90 9 -40 19 -73 22 -73 3 0 3 13 0 29 l-6 30 92 20 c51 12 115
26 144 32 l52 10 -15 52 c-21 74 -22 76 -23 40z"/>
<path d="M9211 3842 c-5 -10 -6 -24 -2 -31 12 -19 46 -9 45 12 -3 25 27 17 37
-10 6 -16 3 -29 -10 -45 -29 -35 -78 -29 -140 15 -50 36 -98 49 -89 25 3 -7
13 -46 23 -85 20 -77 30 -85 80 -63 17 7 17 9 3 9 -12 1 -22 17 -33 53 -22 74
-20 77 28 31 49 -48 76 -63 111 -63 57 0 71 85 25 144 -24 30 -64 34 -78 8z"/>
<path d="M3395 3669 c-53 -30 -62 -94 -19 -128 15 -12 33 -21 41 -21 24 0 66
49 60 71 -12 45 39 0 53 -47 l8 -29 1 28 c3 83 -84 159 -144 126z"/>
<path d="M8912 3668 c-7 -7 -12 -21 -12 -32 0 -19 -1 -19 -20 2 -27 29 -75 29
-91 1 -25 -48 16 -149 61 -149 25 0 51 23 53 48 1 25 12 29 20 8 9 -24 47 -26
69 -4 39 39 5 138 -47 138 -11 0 -26 -5 -33 -12z"/>
<path d="M3045 3639 c-20 -37 -16 -78 8 -93 13 -8 20 -8 27 4 11 18 -7 43 -27
36 -7 -3 -13 1 -13 10 0 19 24 28 55 20 21 -5 25 -12 25 -44 l1 -37 14 33 c12
27 19 32 48 32 42 0 62 -21 53 -55 -6 -22 -9 -23 -26 -13 -15 10 -22 10 -32 0
-10 -10 -9 -15 4 -28 23 -24 55 -2 68 45 23 87 -50 149 -99 84 -18 -25 -20
-26 -21 -7 0 51 -61 61 -85 13z"/>
<path d="M9657 3661 c15 -7 24 -24 32 -61 16 -72 15 -83 -6 -72 -10 5 -53 21
-96 36 -60 21 -82 24 -97 16 -24 -13 -26 -43 -5 -60 13 -11 22 -10 51 3 45 22
52 22 141 -8 42 -14 78 -24 80 -21 6 6 -17 140 -27 156 -4 6 -27 14 -51 16
-34 3 -39 2 -22 -5z"/>
<path d="M8312 3644 c-24 -17 -30 -62 -10 -82 26 -26 -37 -11 -65 16 -25 22
-28 23 -19 6 18 -34 71 -74 98 -74 38 0 81 26 88 54 8 33 -10 71 -41 85 -29
14 -24 14 -51 -5z"/>
<path d="M2332 3621 c-62 -40 -65 -108 -7 -160 107 -94 287 -5 219 107 -26 44
-61 64 -122 69 -46 3 -64 0 -90 -16z m116 -57 c86 -17 107 -31 97 -63 -8 -27
-40 -27 -154 -2 -87 19 -106 33 -90 63 12 22 46 23 147 2z"/>
<path d="M2692 3600 c-5 -137 173 -207 223 -88 24 59 -16 128 -74 128 -36 0
-69 -36 -73 -79 l-3 -34 -32 27 c-20 17 -33 38 -36 59 -3 26 -4 23 -5 -13z"/>
<path d="M10383 3600 c-108 -65 -68 -240 54 -240 36 0 50 6 74 29 34 34 39 92
12 130 l-16 24 37 -6 c51 -8 83 -31 103 -72 22 -47 37 -45 18 3 -43 101 -107
152 -195 152 -37 0 -65 -6 -87 -20z m119 -77 c10 -9 18 -27 18 -40 0 -27 -20
-37 -97 -47 -45 -6 -55 -4 -73 14 -11 11 -20 24 -20 28 0 22 29 43 70 51 68
13 82 13 102 -6z"/>
<path d="M2053 3597 c9 -8 17 -22 17 -31 0 -19 -24 -20 -132 -2 -74 12 -77 11
-82 -8 -4 -15 16 -41 81 -108 48 -48 92 -88 99 -88 7 0 16 17 19 38 12 71 14
73 48 70 28 -3 32 -6 29 -28 -2 -14 0 -21 5 -17 12 12 31 137 21 143 -4 3 -8
-5 -8 -16 0 -16 -4 -20 -16 -16 -9 3 -24 6 -35 6 -27 0 -25 38 4 50 20 8 20 9
2 10 -11 0 -31 3 -45 6 -23 5 -24 4 -7 -9z"/>
<path d="M11465 3523 c13 -117 16 -108 -37 -111 -42 -3 -48 -1 -48 17 0 11 -5
23 -11 27 -14 8 -2 -176 12 -191 5 -5 9 1 9 17 0 22 5 26 41 32 50 8 59 3 59
-35 0 -22 -5 -29 -20 -29 -11 0 -20 -3 -20 -7 0 -5 25 -6 55 -5 54 4 79 22 30
22 -21 0 -25 5 -25 30 0 17 1 30 3 31 1 0 62 6 135 13 73 7 135 16 138 19 4 3
4 17 0 31 -6 25 -58 62 -213 149 -110 63 -116 62 -108 -10z m113 -12 c105 -60
133 -80 112 -81 -22 -1 -120 -10 -158 -15 -20 -2 -34 1 -37 8 -6 19 -14 137
-9 137 2 0 44 -22 92 -49z"/>
<path d="M1417 3559 c-27 -16 -47 -71 -47 -129 0 -41 5 -56 25 -75 39 -40 81
-32 119 25 13 19 16 21 16 7 0 -32 29 -75 58 -85 69 -24 122 39 122 146 0 49
-4 64 -25 86 -44 48 -104 31 -143 -39 -11 -20 -11 -20 -12 1 0 55 -65 91 -113
63z"/>
<path d="M8567 3524 c-3 -3 -1 -20 4 -37 5 -18 9 -35 9 -39 0 -13 -48 -9 -54
5 -6 13 2 -35 11 -67 5 -17 6 -18 15 -3 13 25 42 22 35 -3 -3 -13 0 -20 9 -20
10 0 13 7 8 25 -5 21 -3 25 15 25 40 0 111 22 111 34 0 17 -152 91 -163 80z"/>
<path d="M887 3489 c-38 -22 -63 -112 -47 -168 21 -75 92 -107 125 -57 13 19
14 29 5 45 -18 35 -61 25 -75 -18 -6 -21 -8 -22 -23 -7 -19 19 -21 78 -3 100
23 27 79 31 126 8 34 -16 55 -39 99 -106 46 -69 61 -86 81 -86 17 0 25 6 25
17 0 9 5 68 11 131 6 62 9 115 7 117 -8 8 -118 22 -118 15 0 -4 11 -12 25 -18
22 -10 25 -17 21 -44 -3 -18 -8 -60 -12 -93 l-6 -60 -40 80 c-46 91 -70 125
-101 142 -27 15 -76 16 -100 2z"/>
<path d="M9315 3490 c-11 -17 6 -32 32 -27 29 5 41 -16 23 -38 -15 -18 -61
-20 -78 -3 -7 7 -12 20 -12 30 0 10 -5 18 -10 18 -6 0 -8 -10 -4 -24 8 -31
-26 -66 -64 -66 -34 0 -52 16 -52 46 0 19 5 22 28 21 21 -2 27 2 27 18 0 24
-30 32 -52 14 -23 -20 -12 -103 17 -134 42 -45 110 -21 110 39 0 16 3 15 21
-8 24 -30 49 -33 72 -8 23 26 22 94 -1 115 -21 19 -48 22 -57 7z"/>
<path d="M10114 3439 c-28 -10 -36 -33 -20 -55 16 -21 46 -12 53 16 7 25 19
26 33 1 43 -80 -61 -124 -147 -62 -22 16 -50 43 -62 60 -16 22 -31 31 -49 31
l-28 0 12 -106 c7 -58 14 -107 16 -109 2 -2 26 0 53 4 28 5 40 9 28 10 -12 0
-24 9 -27 19 -8 29 -18 132 -12 132 2 0 26 -27 51 -59 45 -57 93 -91 129 -91
10 0 28 11 41 25 20 19 25 34 25 72 0 80 -44 132 -96 112z"/>
<path d="M472 3417 c-52 -30 -78 -100 -58 -157 l13 -38 -42 15 c-55 18 -83 49
-106 115 l-18 53 0 -41 c-1 -57 24 -125 65 -172 121 -142 347 -92 346 78 -1
89 -51 150 -129 157 -28 2 -57 -2 -71 -10z m131 -98 c50 -13 67 -47 43 -84
-15 -23 -23 -25 -84 -25 -89 0 -110 7 -128 42 -14 27 -14 32 1 54 13 21 23 24
73 24 31 0 74 -5 95 -11z"/>
<path d="M3847 3392 c-34 -38 -15 -86 42 -103 79 -24 132 41 80 97 -29 30 -97
34 -122 6z"/>
<path d="M3310 3380 c-20 -20 -28 -83 -12 -106 14 -21 42 -24 61 -5 17 17 18
17 34 -11 33 -57 97 -21 97 55 0 57 -27 86 -65 69 -14 -6 -25 -16 -25 -22 0
-5 -4 -10 -10 -10 -5 0 -10 7 -10 15 0 12 -28 35 -44 35 -3 0 -15 -9 -26 -20z"/>
<path d="M8329 3385 c-14 -7 -31 -25 -37 -40 -34 -74 86 -119 149 -56 36 36
37 63 3 90 -31 24 -77 26 -115 6z"/>
<path d="M3000 3352 c-13 -10 -23 -33 -27 -58 -4 -34 -1 -46 16 -63 26 -26 54
-24 59 3 5 26 -20 40 -36 19 -9 -13 -15 -14 -24 -5 -19 19 6 62 37 62 41 0 62
-16 100 -75 19 -30 39 -55 44 -55 10 0 16 23 27 104 7 53 -1 66 -45 66 -22 0
-23 -2 -9 -12 12 -10 14 -24 9 -63 l-7 -50 -28 58 c-28 55 -57 87 -82 87 -7 0
-22 -8 -34 -18z"/>
<path d="M8940 3350 c-22 -22 -27 -74 -9 -86 8 -4 9 0 4 15 -5 17 -1 23 20 31
42 16 92 12 99 -7 11 -27 -14 -41 -79 -47 -68 -6 -103 7 -121 42 -20 40 -27
38 -10 -3 38 -93 136 -126 197 -66 16 16 29 40 29 53 0 23 -24 66 -44 80 -21
14 -66 8 -86 -12z"/>
<path d="M2623 3219 c-2 -37 1 -70 5 -72 4 -3 30 -7 57 -8 42 -3 50 -1 47 12
-1 9 2 29 8 43 8 22 16 26 49 26 23 0 46 -7 55 -16 27 -27 17 -76 -10 -53 -19
16 -44 4 -44 -21 0 -15 7 -20 24 -20 67 0 77 142 12 171 -56 26 -106 -20 -106
-99 0 -37 -1 -38 -30 -34 -29 4 -30 5 -27 64 2 52 -1 61 -18 68 -19 7 -20 3
-22 -61z"/>
<path d="M9552 3270 c-28 -26 -36 -76 -22 -128 21 -80 96 -94 131 -25 l16 32
11 -24 c16 -36 57 -43 87 -15 29 27 35 60 22 111 -19 76 -92 89 -118 22 -11
-27 -11 -27 -19 -7 -10 25 -47 54 -70 54 -9 0 -26 -9 -38 -20z"/>
<path d="M11190 3258 l0 -36 -72 -6 c-40 -3 -114 -8 -164 -11 l-92 -6 -10 38
c-9 34 -10 28 -10 -47 0 -47 4 -98 8 -115 l8 -30 1 36 1 37 128 6 c70 4 151 9
180 13 l53 5 -6 67 c-8 73 -25 107 -25 49z"/>
<path d="M2300 3243 c-74 -27 -90 -125 -29 -182 60 -56 157 8 136 89 -8 30 19
25 54 -9 17 -17 29 -40 29 -55 0 -14 5 -26 10 -26 23 0 -2 88 -37 130 -43 52
-109 73 -163 53z"/>
<path d="M1997 3159 c-10 -6 -27 -30 -37 -52 -13 -30 -19 -36 -19 -21 -1 27
-29 60 -57 68 -49 15 -91 -68 -72 -141 13 -50 78 -60 78 -12 0 25 -27 36 -52
20 -18 -11 -19 -9 -16 21 3 31 6 33 44 36 50 4 74 -16 74 -59 0 -18 4 -28 10
-24 6 3 10 19 10 35 0 33 31 60 70 60 42 0 70 -26 70 -66 0 -38 -2 -39 -29
-22 -26 16 -51 3 -51 -26 0 -21 16 -36 40 -36 18 0 48 42 54 73 7 42 -8 105
-31 128 -24 23 -63 32 -86 18z"/>
<path d="M9250 3121 c0 -50 -1 -51 -29 -51 -20 0 -31 6 -35 18 -2 9 -2 -10 1
-43 5 -57 13 -88 13 -52 0 12 9 17 30 17 34 0 41 -22 13 -39 -15 -9 -12 -10
15 -9 17 1 32 6 32 10 0 4 -4 8 -10 8 -5 0 -10 6 -10 14 0 18 31 26 103 26 50
0 57 2 57 20 0 19 -39 50 -132 104 l-48 28 0 -51z"/>
<path d="M10580 3131 c0 -5 11 -12 25 -15 23 -6 25 -11 26 -64 0 -31 3 -69 5
-84 3 -16 3 -28 0 -28 -2 0 -46 25 -97 55 -52 31 -105 58 -118 62 -35 9 -56
-9 -56 -48 0 -33 1 -34 40 -31 104 7 110 6 192 -36 45 -23 87 -42 93 -42 7 0
10 33 8 103 l-3 102 -50 17 c-60 20 -65 21 -65 9z"/>
<path d="M1340 2986 l0 -104 28 -10 c15 -6 41 -14 57 -17 l30 -6 -28 16 c-28
16 -28 18 -25 96 2 43 5 79 7 79 2 0 43 -24 90 -54 47 -30 99 -59 114 -65 39
-15 67 1 67 39 0 39 -24 51 -76 38 -52 -14 -73 -8 -164 46 -41 25 -81 46 -87
46 -10 0 -13 -27 -13 -104z"/>
<path d="M8975 3054 c-5 -1 -22 -5 -37 -8 -66 -15 -90 -92 -42 -137 21 -20 36
-24 84 -24 48 0 63 4 84 24 31 29 35 78 9 110 -17 20 -75 41 -98 35z"/>
<path d="M9944 2985 c-17 -26 -20 -73 -9 -124 8 -38 48 -71 86 -71 33 0 69 40
70 79 l1 26 11 -26 c20 -43 38 -59 68 -59 53 0 86 89 54 149 -13 26 -21 32
-43 29 -19 -2 -28 -10 -30 -24 -3 -24 25 -41 42 -24 18 18 27 10 24 -22 -3
-31 -6 -33 -45 -36 -33 -2 -44 1 -57 20 -9 12 -16 34 -17 48 -1 18 -4 14 -10
-15 -11 -49 -31 -65 -80 -65 -45 0 -69 21 -69 59 0 36 9 44 27 25 9 -8 20 -13
26 -11 18 6 31 33 24 51 -10 25 -54 20 -73 -9z"/>
<path d="M11409 2954 c-21 -23 -24 -35 -24 -108 0 -75 3 -86 28 -119 18 -24
42 -41 68 -49 36 -10 46 -10 78 8 55 29 73 73 68 167 l-4 77 38 0 c66 0 70 -4
63 -76 -4 -35 -3 -79 0 -98 6 -31 12 -37 46 -47 22 -7 43 -9 48 -4 4 4 1 10
-5 12 -9 3 -13 33 -13 102 0 62 -4 101 -12 109 -7 7 -44 12 -98 12 l-86 0 0
-55 c1 -77 -22 -100 -104 -100 -74 0 -102 22 -102 80 0 45 14 62 32 40 15 -18
51 -20 68 -3 28 28 1 78 -42 78 -12 0 -33 -12 -47 -26z"/>
<path d="M2750 2949 c0 -5 5 -7 10 -4 6 3 10 -3 10 -14 0 -19 -6 -21 -80 -21
-65 0 -82 -3 -87 -16 -6 -17 17 -39 116 -107 l56 -39 3 51 c3 49 4 51 32 51
19 0 30 -6 33 -17 3 -10 5 11 5 47 0 36 -2 57 -5 48 -3 -12 -14 -18 -34 -18
-30 0 -38 17 -17 38 9 9 6 12 -15 12 -15 0 -27 -5 -27 -11z"/>
<path d="M8605 2935 c-30 -30 -32 -64 -4 -99 40 -51 116 -21 107 44 -3 16 -3
30 -2 30 20 0 55 -29 64 -53 14 -42 22 -29 9 15 -22 81 -121 117 -174 63z"/>
<path d="M1170 2910 l0 -30 -174 0 c-97 0 -177 -4 -181 -9 -8 -15 7 -151 16
-145 5 3 9 18 9 35 l0 29 128 0 c70 0 144 3 165 6 37 7 37 7 37 -29 0 -20 5
-39 10 -42 6 -4 10 33 10 104 0 67 -4 111 -10 111 -5 0 -10 -13 -10 -30z"/>
<path d="M9663 2874 c-22 -22 -25 -32 -20 -69 l4 -44 -31 12 c-20 9 -39 28
-55 57 l-23 45 6 -39 c15 -109 128 -177 216 -131 33 17 47 38 50 75 4 45 0 58
-26 89 -34 41 -83 43 -121 5z"/>
<path d="M2404 2860 c-11 -4 -27 -22 -34 -39 l-13 -32 -18 31 c-47 77 -137 -4
-109 -99 13 -48 28 -61 67 -61 29 0 36 5 48 33 12 29 14 30 21 12 27 -75 109
-75 134 0 29 88 -29 182 -96 155z"/>
<path d="M481 2817 c-42 -21 -64 -62 -69 -126 -2 -33 0 -74 6 -90 l11 -31 -55
0 -54 0 0 79 c0 106 -9 127 -56 134 -44 7 -62 0 -40 -16 12 -9 18 -38 23 -107
3 -52 11 -98 17 -102 6 -4 50 -8 98 -8 l88 0 -6 44 c-4 25 -4 56 0 70 14 57
135 78 181 31 26 -25 32 -68 15 -95 -7 -12 -12 -12 -29 4 -18 16 -25 17 -46 8
-50 -23 -14 -102 38 -83 62 23 81 129 39 223 -30 69 -99 97 -161 65z"/>
<path d="M3345 2810 c-11 -13 -16 -30 -13 -50 3 -18 0 -30 -7 -30 -18 0 -55
30 -55 45 0 8 -4 16 -9 20 -6 3 -6 -7 -1 -27 24 -83 126 -119 178 -62 28 31
28 64 1 98 -25 32 -68 35 -94 6z"/>
<path d="M9196 2788 c-34 -48 -9 -142 40 -154 56 -14 94 28 94 106 0 36 2 38
28 36 26 -3 27 -5 24 -59 -3 -47 -1 -57 16 -66 34 -18 37 -14 34 58 l-4 69
-36 6 c-67 11 -84 8 -77 -13 3 -10 1 -30 -4 -45 -9 -23 -16 -26 -54 -26 -48 0
-67 13 -67 45 0 30 9 36 31 22 23 -14 45 3 36 27 -9 23 -43 19 -61 -6z"/>
<path d="M10846 2698 c-3 -50 -6 -110 -6 -134 l0 -42 58 -4 c54 -4 80 0 56 9
-37 13 -41 27 -35 116 l6 88 34 -63 c69 -129 126 -175 191 -158 93 24 94 234
1 255 -45 10 -73 -9 -69 -48 2 -27 8 -33 31 -35 23 -3 30 2 40 28 13 29 14 30
30 12 26 -29 22 -77 -9 -101 -62 -49 -136 -17 -213 91 -45 62 -61 77 -82 78
-26 0 -26 -1 -33 -92z"/>
<path d="M2010 2730 c0 -5 9 -10 19 -10 16 0 21 -10 26 -53 4 -29 5 -64 3 -77
-3 -20 -8 -15 -42 35 -71 102 -132 130 -181 80 -32 -31 -34 -104 -5 -153 18
-29 25 -33 58 -30 34 3 37 6 37 33 0 25 -4 30 -25 30 -18 0 -26 -6 -28 -22 -4
-28 -18 -29 -32 -4 -27 52 3 91 69 91 39 0 49 -6 110 -65 37 -36 75 -65 84
-65 19 0 21 21 11 143 l-7 77 -48 0 c-27 0 -49 -4 -49 -10z"/>
<path d="M3005 2698 c-32 -17 -45 -39 -45 -78 0 -48 30 -80 74 -80 45 0 70 29
64 75 -5 48 20 47 62 -2 l32 -38 -16 39 c-20 49 -32 64 -67 82 -33 17 -76 18
-104 2z"/>
<path d="M10404 2668 c-35 -17 -49 -55 -49 -135 0 -69 2 -76 28 -99 15 -13 39
-24 53 -24 30 0 84 50 84 77 0 10 9 -1 19 -24 30 -66 94 -71 131 -10 28 45 27
135 -1 171 -31 39 -85 34 -115 -12 l-22 -32 -7 30 c-12 55 -70 83 -121 58z"/>
<path d="M1517 2600 c-39 -31 -52 -80 -32 -125 l15 -38 -32 7 c-48 10 -79 34
-97 77 -17 41 -37 54 -26 17 39 -131 142 -206 247 -177 87 23 125 102 90 182
-32 73 -111 100 -165 57z m151 -72 c16 -16 15 -53 -2 -67 -7 -6 -43 -14 -79
-18 -63 -5 -65 -5 -83 22 -21 32 -11 56 27 66 41 12 124 10 137 -3z"/>
<path d="M2756 2578 c-9 -12 -16 -31 -16 -42 0 -16 -3 -15 -21 8 -23 29 -60
34 -79 11 -21 -25 -16 -93 8 -117 22 -23 52 -19 52 7 0 22 -27 30 -46 14 -14
-11 -15 -9 -12 17 3 26 7 29 41 32 34 3 39 0 52 -30 l14 -33 1 32 c0 35 29 63
65 63 29 0 43 -12 50 -43 7 -26 6 -28 -21 -25 -21 2 -29 -2 -32 -16 -6 -27 12
-40 37 -27 28 15 36 54 22 102 -20 65 -84 91 -115 47z"/>
<path d="M10006 2584 c-3 -9 -6 -33 -6 -54 0 -44 -11 -55 -46 -46 -16 4 -24
13 -24 28 0 13 -4 18 -9 13 -12 -14 -23 -147 -11 -140 6 3 10 13 10 21 0 12 7
14 33 9 40 -9 40 -9 32 -35 -4 -13 -12 -19 -21 -16 -8 3 -14 1 -14 -4 0 -6 19
-9 43 -9 23 1 34 3 25 6 -11 3 -18 14 -18 30 0 24 2 25 43 19 23 -3 70 -8 105
-12 62 -7 62 -6 62 19 0 20 -21 44 -92 106 -51 45 -96 81 -99 81 -4 0 -10 -7
-13 -16z"/>
<path d="M9580 2509 c-70 -28 -92 -98 -48 -154 74 -94 251 -60 251 49 0 77
-119 138 -203 105z m75 -64 c93 -9 115 -19 115 -49 0 -16 -7 -27 -21 -31 -23
-8 -185 13 -211 27 -37 18 -8 74 32 63 8 -2 46 -6 85 -10z"/>
<path d="M9204 2461 c-12 -5 -31 -22 -44 -38 -42 -54 -1 -143 66 -143 41 0 78
42 72 82 -6 36 11 36 46 2 17 -17 26 -38 26 -58 0 -20 3 -27 9 -18 11 18 -2
85 -23 116 -32 50 -105 77 -152 57z"/>
<path d="M965 2438 c-75 -27 -115 -78 -115 -143 0 -71 39 -114 123 -136 116
-29 257 54 257 151 0 37 -28 84 -66 110 -29 19 -52 25 -103 27 -36 1 -79 -3
-96 -9z m219 -78 c20 -7 26 -16 26 -40 0 -41 -32 -54 -177 -70 -131 -15 -160
-10 -169 27 -13 49 35 66 236 86 19 2 40 5 47 5 6 1 23 -2 37 -8z"/>
<path d="M2254 2433 c2 -10 8 -46 11 -81 8 -68 22 -82 83 -82 l27 0 -25 13
c-21 10 -26 23 -32 72 -4 32 -7 60 -5 61 1 2 38 -13 81 -32 113 -49 156 -45
141 13 -5 22 -10 24 -33 18 -71 -18 -99 -16 -162 9 -75 31 -93 33 -86 9z"/>
<path d="M8830 2392 c-6 -31 -13 -67 -16 -79 -3 -18 2 -24 28 -31 35 -10 51
-6 30 7 -10 6 -11 22 -6 60 7 57 15 56 33 -1 18 -55 48 -88 80 -88 50 0 84 70
58 120 -17 33 -61 35 -65 3 -3 -18 2 -23 17 -23 13 0 21 7 21 18 1 16 2 15 15
-2 10 -14 11 -24 4 -38 -27 -50 -88 -27 -130 48 -42 74 -55 75 -69 6z"/>
<path d="M3122 2398 c-7 -7 -12 -23 -12 -37 l0 -24 -23 21 c-28 26 -50 28 -71
6 -30 -30 -10 -123 29 -138 22 -8 52 9 61 36 l6 21 17 -22 c23 -31 70 -26 90
10 18 32 8 92 -20 120 -21 21 -59 25 -77 7z"/>
<path d="M8545 2387 c-8 -13 -18 -38 -21 -55 -12 -61 56 -98 90 -50 l16 22 0
-22 c0 -14 9 -27 26 -34 24 -11 29 -9 50 15 55 64 3 155 -58 100 -17 -15 -18
-15 -18 3 0 46 -59 60 -85 21z"/>
<path d="M3650 2382 c-19 -9 -41 -29 -49 -43 -33 -59 49 -109 122 -74 63 29
72 92 17 120 -37 19 -47 19 -90 -3z"/>
<path d="M11470 2390 c-49 -8 -82 -33 -108 -79 -67 -119 33 -270 154 -231 65
22 111 110 85 166 -14 31 0 31 53 1 45 -25 76 -77 76 -124 0 -18 5 -33 11 -33
19 0 5 120 -19 165 -18 36 -58 79 -104 113 -22 17 -105 29 -148 22z m34 -99
c74 -12 109 -66 69 -106 -14 -14 -28 -16 -81 -11 -94 10 -132 28 -132 63 0 60
33 72 144 54z"/>
<path d="M8042 2364 c-31 -22 -28 -57 9 -88 39 -33 82 -34 114 -2 59 59 -51
141 -123 90z"/>
<path d="M2140 2287 c0 -28 -7 -30 -183 -59 -42 -6 -82 -15 -88 -19 -8 -4 -7
-23 2 -65 12 -52 14 -55 17 -26 2 17 4 32 5 32 1 0 54 9 117 20 148 26 150 26
150 -5 0 -14 5 -25 10 -25 6 0 8 10 5 23 -2 12 -9 49 -15 81 -11 65 -20 84
-20 43z"/>
<path d="M3460 2260 c11 -20 9 -21 -93 -46 -47 -11 -29 -36 48 -66 87 -34 98
-35 90 -5 -4 12 -9 29 -11 38 -6 20 24 33 41 19 11 -9 11 -3 3 30 -6 23 -14
37 -17 32 -3 -6 -15 -12 -26 -14 -14 -2 -20 2 -19 15 1 9 -5 17 -12 17 -12 0
-12 -4 -4 -20z"/>
<path d="M538 2263 c-16 -2 -28 -9 -28 -15 0 -5 8 -7 17 -4 9 4 20 1 25 -6 11
-18 10 -58 -2 -58 -14 0 -221 -30 -247 -35 -29 -7 -30 -38 -3 -63 30 -28 274
-152 299 -152 17 0 21 5 17 18 -3 9 -8 43 -12 76 -7 65 -1 76 52 76 24 0 32
-6 41 -27 l11 -28 1 27 c2 48 -21 178 -31 178 -6 0 -8 -11 -6 -25 5 -22 1 -25
-39 -31 -50 -7 -48 -8 -57 28 -5 22 -2 28 22 36 l27 10 -30 0 c-16 -1 -42 -3
-57 -5z m47 -239 c4 -36 5 -68 2 -70 -5 -5 -152 66 -196 95 -25 16 -24 16 54
27 142 20 132 24 140 -52z"/>
<path d="M2863 2263 c-35 -5 -46 -23 -14 -23 12 0 20 -9 24 -29 3 -16 9 -42
13 -57 7 -27 4 -26 -50 24 -68 61 -113 70 -142 27 -36 -54 14 -155 70 -141 19
5 26 13 26 31 0 32 -39 36 -47 5 -7 -25 -23 -22 -34 7 -12 33 15 63 57 63 41
0 66 -12 112 -51 37 -33 76 -39 69 -11 -3 9 -13 50 -22 90 -10 39 -20 71 -24
70 -3 0 -21 -3 -38 -5z"/>
<path d="M10831 2249 c-31 -29 -41 -61 -41 -127 0 -83 36 -131 98 -132 38 0
92 48 92 81 0 10 5 19 10 19 6 0 10 -9 10 -20 0 -57 51 -101 99 -85 53 17 91
139 58 189 -20 30 -53 42 -72 26 -37 -30 -3 -81 40 -62 23 11 25 10 25 -16 0
-46 -13 -55 -66 -49 -56 6 -74 25 -74 79 0 21 -4 38 -10 38 -5 0 -10 -9 -10
-20 0 -34 -22 -69 -50 -79 -31 -10 -92 0 -115 19 -17 14 -20 77 -6 99 8 12 13
11 28 -8 14 -17 25 -22 41 -17 30 10 41 55 17 73 -26 18 -48 16 -74 -8z"/>
<path d="M10306 2182 c-12 -19 2 -100 26 -151 41 -86 163 -129 238 -84 101 60
64 238 -49 238 -66 0 -121 -74 -100 -132 10 -28 3 -29 -38 -3 -38 23 -55 51
-63 105 -3 27 -8 36 -14 27z m272 -93 c33 -11 46 -32 37 -60 -9 -28 -51 -34
-114 -18 -45 11 -57 19 -65 41 -15 43 7 61 65 54 26 -4 61 -11 77 -17z"/>
<path d="M9875 2154 c-57 -57 -43 -176 25 -204 63 -26 129 39 130 128 0 33 1
33 33 27 17 -4 33 -9 35 -10 2 -1 -3 -32 -9 -68 -13 -70 -7 -90 29 -99 18 -5
20 7 25 127 l2 40 -60 16 c-33 9 -63 14 -67 12 -5 -2 -8 -17 -8 -34 0 -34 -31
-69 -60 -69 -11 0 -36 7 -55 14 -31 13 -35 20 -35 50 0 41 12 51 38 35 27 -17
54 -4 50 23 -4 29 -48 36 -73 12z"/>
<path d="M3714 2136 c-50 -22 -60 -78 -21 -114 54 -51 122 3 87 69 -16 29 25
25 55 -6 14 -13 25 -19 25 -14 0 16 -57 69 -73 69 -9 0 -21 2 -29 5 -7 2 -27
-2 -44 -9z"/>
<path d="M1589 2111 c-25 -25 -29 -37 -29 -83 0 -29 7 -65 14 -80 17 -32 14
-35 -34 -40 l-34 -3 -17 74 c-9 40 -23 77 -30 82 -18 11 -40 11 -57 0 -11 -7
-11 -9 0 -14 9 -3 20 -34 28 -76 7 -39 18 -75 24 -80 6 -5 40 -4 81 3 52 9 69
16 66 27 -24 89 -10 113 81 135 33 7 78 -32 78 -69 0 -22 -4 -24 -37 -23 -36
1 -38 -1 -38 -29 0 -23 5 -31 22 -33 59 -9 82 82 42 165 -36 75 -109 95 -160
44z"/>
<path d="M8771 2114 c-28 -35 -28 -97 -1 -124 27 -27 46 -25 75 6 23 25 25 26
25 6 0 -21 24 -52 41 -52 6 0 21 11 35 25 34 34 31 98 -3 103 -29 4 -32 -28
-3 -35 23 -6 27 -31 7 -39 -8 -3 -26 0 -41 6 -24 9 -28 15 -24 40 5 35 -3 39
-17 8 -22 -49 -115 -25 -99 26 9 28 16 34 21 19 3 -7 14 -13 25 -13 14 0 19 6
16 22 -4 33 -32 33 -57 2z"/>
<path d="M9442 2060 c-11 -44 -16 -80 -11 -80 5 0 9 10 9 21 0 25 1 25 157
-11 56 -13 104 -22 106 -19 3 2 7 27 11 54 5 41 4 46 -5 30 -7 -11 -13 -22
-15 -24 -2 -2 -55 9 -118 25 l-115 28 6 28 c3 15 3 28 0 28 -2 0 -14 -36 -25
-80z"/>
<path d="M8471 2092 c-2 -75 41 -122 109 -122 41 0 70 32 70 75 0 39 -28 75
-60 75 -26 0 -60 -34 -60 -60 0 -43 -46 -4 -53 45 -3 23 -4 21 -6 -13z"/>
<path d="M2484 2100 c-49 -20 -69 -85 -38 -128 14 -21 14 -22 -10 -22 -38 0
-71 19 -90 52 -10 16 -20 27 -23 24 -11 -11 48 -95 81 -115 38 -24 110 -28
151 -9 33 15 55 56 55 102 0 64 -72 119 -126 96z"/>
<path d="M0 1979 l0 -61 44 6 c56 9 86 -15 86 -68 0 -42 -16 -56 -77 -64 l-48
-7 0 -55 0 -55 43 1 c83 2 124 80 102 198 -14 76 -38 119 -82 146 -58 35 -68
29 -68 -41z"/>
<path d="M3852 1918 c-6 -6 -12 -20 -12 -30 0 -16 -3 -17 -21 -7 -18 9 -25 8
-41 -8 -24 -24 -17 -61 18 -94 20 -18 29 -21 42 -13 9 6 18 21 20 32 3 20 5
21 26 7 51 -34 83 22 50 84 -20 39 -59 52 -82 29z"/>
<path d="M1035 1902 c-62 -29 -95 -74 -95 -129 0 -89 57 -153 136 -153 46 0
78 20 99 60 20 39 19 68 -5 114 l-19 39 41 -6 c48 -6 85 -31 113 -75 28 -43
39 -40 20 6 -52 124 -188 192 -290 144z m107 -99 c10 -9 18 -27 18 -40 0 -30
-50 -53 -130 -60 -53 -5 -56 -4 -68 21 -17 39 -1 63 56 80 63 20 102 19 124
-1z"/>
<path d="M8116 1899 c-36 -29 -36 -82 0 -106 23 -15 29 -15 52 -2 14 8 29 25
32 39 l6 25 18 -28 c10 -15 16 -36 13 -47 -3 -11 -1 -20 4 -20 14 0 10 78 -6
109 -8 16 -28 34 -46 40 -42 14 -42 14 -73 -10z"/>
<path d="M2085 1901 c-44 -11 -70 -27 -99 -62 -55 -65 -22 -159 61 -175 109
-20 213 47 213 138 0 41 -39 83 -91 98 -38 11 -41 11 -84 1z m157 -77 c16 -34
-1 -47 -97 -76 -96 -28 -155 -35 -166 -17 -27 43 -4 60 127 95 113 30 122 29
136 -2z"/>
<path d="M8376 1849 c-15 -12 -26 -30 -26 -44 0 -34 45 -83 88 -96 103 -30
152 78 62 139 -41 28 -89 28 -124 1z"/>
<path d="M11868 1718 c-15 -73 -25 -134 -23 -137 8 -8 17 7 24 41 8 36 11 37
89 23 l42 -8 0 51 c0 54 1 53 -68 67 -33 7 -33 7 -26 51 3 24 2 44 -3 44 -4 0
-21 -59 -35 -132z"/>
<path d="M8726 1806 c-8 -20 -19 -36 -25 -36 -22 0 -39 13 -34 26 12 31 -8 11
-22 -22 -17 -42 -19 -58 -5 -49 6 3 19 4 30 0 22 -7 16 -35 -9 -36 -12 0 -12
-2 4 -9 29 -13 35 -12 29 4 -10 26 14 26 76 0 88 -39 95 -25 38 73 -25 42 -50
79 -56 81 -6 2 -18 -13 -26 -32z"/>
<path d="M3277 1792 c-20 -22 -22 -75 -3 -91 11 -9 12 -6 8 14 -4 21 1 27 32
40 46 19 72 19 80 -1 9 -25 -11 -42 -67 -59 -71 -21 -97 -19 -129 12 -15 15
-28 22 -28 17 0 -16 63 -72 94 -84 65 -24 146 26 146 91 0 64 -92 106 -133 61z"/>
<path d="M9014 1802 c-24 -15 -54 -79 -54 -114 0 -60 55 -88 97 -48 l22 19 6
-30 c12 -55 73 -58 106 -5 28 46 25 101 -7 122 -24 16 -26 16 -56 -6 -25 -19
-30 -20 -25 -6 7 18 -8 56 -27 68 -6 4 -20 8 -31 8 -11 0 -25 -4 -31 -8z"/>
<path d="M9341 1714 c-17 -47 -31 -89 -31 -93 0 -4 18 -15 40 -24 22 -8 40
-12 40 -7 0 4 -6 10 -14 13 -12 5 -11 16 7 71 23 72 28 70 46 -17 30 -137 131
-159 170 -36 14 42 2 82 -28 98 -38 21 -76 -18 -47 -48 14 -13 17 -13 34 2 26
24 32 21 32 -11 0 -36 -17 -52 -56 -52 -44 0 -78 38 -104 115 -18 53 -34 75
-55 75 -2 0 -17 -38 -34 -86z"/>
<path d="M11550 1762 c0 -4 9 -13 20 -20 11 -7 20 -22 20 -35 0 -34 -34 -177
-42 -175 -3 2 -50 44 -103 93 -133 123 -159 136 -189 93 -39 -55 -5 -99 68
-91 59 7 98 -14 194 -103 44 -41 85 -74 90 -74 10 0 62 199 62 236 0 12 -20
30 -54 52 -56 33 -66 37 -66 24z"/>
<path d="M10821 1738 c-4 -13 -11 -39 -15 -58 -10 -55 -18 -63 -57 -52 -28 7
-34 13 -34 35 1 44 -12 31 -29 -28 -26 -87 -31 -119 -18 -111 7 4 12 13 12 20
0 11 8 11 40 2 35 -9 41 -14 38 -35 -2 -17 -11 -27 -28 -31 -22 -5 -18 -8 24
-19 48 -12 77 -9 36 4 -18 6 -20 12 -15 33 4 15 8 28 9 29 1 2 57 -12 124 -31
l122 -33 6 24 c7 28 -14 63 -111 178 -80 96 -92 104 -104 73z"/>
<path d="M9782 1730 c-37 -23 -52 -54 -52 -111 0 -74 78 -122 141 -89 26 14
52 68 46 97 -4 22 -3 23 16 10 36 -24 61 -66 61 -102 0 -19 4 -35 8 -35 4 0 8
26 8 58 0 80 -31 138 -90 169 -53 28 -95 29 -138 3z"/>
<path d="M2582 1707 c-28 -29 -29 -90 -3 -133 l19 -31 -33 -10 -33 -11 -22 59
c-19 54 -24 59 -51 59 -16 0 -29 -4 -29 -10 0 -5 4 -10 8 -10 4 0 16 -24 26
-52 11 -29 22 -57 26 -61 4 -5 33 -1 65 9 49 16 55 21 50 39 -23 70 -10 99 51
111 34 6 59 -10 69 -45 6 -21 5 -23 -14 -18 -25 6 -53 -17 -45 -38 10 -25 53
-18 66 10 26 56 -39 155 -101 155 -16 0 -37 -10 -49 -23z"/>
<path d="M10233 1710 c-43 -26 -56 -54 -50 -107 15 -138 246 -197 317 -81 26
42 25 71 -1 118 -45 80 -188 118 -266 70z m122 -66 c118 -34 145 -49 145 -78
0 -56 -36 -56 -196 -5 -105 33 -122 47 -106 84 15 32 43 32 157 -1z"/>
<path d="M1720 1686 c-33 -13 -34 -14 -10 -17 16 -3 26 -11 28 -24 2 -18 -11
-25 -103 -54 -127 -41 -137 -58 -52 -96 79 -35 220 -76 229 -67 5 5 2 28 -7
51 -22 63 -19 77 16 90 18 6 33 11 34 11 2 0 5 -10 8 -22 4 -12 9 -19 13 -16
8 9 -34 148 -45 148 -5 0 -7 -8 -4 -19 6 -24 -55 -50 -69 -29 -12 20 -9 36 10
47 25 15 -4 13 -48 -3z"/>
<path d="M653 1665 c-41 -17 -55 -45 -55 -108 l1 -50 -25 36 c-40 60 -87 73
-133 38 -20 -15 -25 -30 -28 -77 -5 -67 15 -115 59 -148 23 -16 32 -18 53 -8
16 8 25 20 25 35 0 48 -47 63 -75 25 -13 -20 -17 -21 -25 -8 -5 8 -10 29 -10
46 0 28 5 34 41 48 54 22 95 13 114 -24 8 -16 15 -36 15 -45 0 -8 5 -15 11
-15 7 0 9 16 4 48 -8 63 16 96 82 110 75 16 112 -12 113 -87 0 -18 -4 -22 -17
-16 -42 17 -52 16 -67 -8 -28 -42 8 -86 57 -68 77 29 49 207 -42 268 -39 26
-54 28 -98 8z"/>
<path d="M2994 1592 c-78 -37 -105 -103 -64 -155 42 -53 155 -40 200 23 64 90
-29 181 -136 132z"/>
<path d="M8552 1563 c-20 -8 -42 -59 -42 -97 0 -27 6 -40 26 -52 37 -25 74 -9
100 42 20 40 30 44 62 19 2 -2 -7 -23 -19 -48 -20 -41 -21 -77 -2 -77 4 0 20
25 35 55 l28 54 -43 26 c-53 31 -53 31 -61 1 -8 -32 -38 -41 -76 -21 -21 11
-30 23 -30 40 0 31 14 39 39 23 28 -17 51 3 31 27 -13 15 -25 17 -48 8z"/>
<path d="M3432 1514 c-28 -19 -29 -67 -2 -111 19 -32 19 -33 0 -43 -27 -14
-28 -14 -50 30 -24 46 -41 56 -67 41 -10 -6 -13 -11 -6 -11 7 0 24 -20 39 -45
14 -25 30 -45 35 -45 6 0 28 9 50 21 38 19 40 22 25 38 -32 35 -12 81 42 94
15 4 27 -1 37 -16 19 -27 19 -41 1 -34 -18 7 -36 -11 -29 -29 7 -19 39 -18 47
2 12 32 5 53 -28 88 -36 39 -60 44 -94 20z"/>
<path d="M4108 1488 c-27 -22 -30 -53 -8 -81 20 -25 20 -26 1 -32 -11 -3 -34
1 -51 10 -40 21 -39 10 3 -15 17 -11 49 -20 70 -20 77 0 117 85 61 129 -30 24
-53 26 -76 9z"/>
<path d="M7849 1471 c-52 -52 -31 -116 31 -96 15 5 18 3 14 -9 -8 -21 13 -46
38 -46 30 0 70 46 66 78 -3 23 -8 27 -35 27 -28 0 -31 3 -27 21 6 23 -18 54
-42 54 -9 0 -29 -13 -45 -29z"/>
<path d="M2205 1480 c-46 -10 -81 -37 -100 -77 -49 -103 92 -217 170 -138 32
31 34 91 4 129 l-20 26 36 0 c44 0 73 -14 102 -48 13 -15 23 -21 23 -15 0 18
-68 92 -99 107 -36 18 -81 24 -116 16z"/>
<path d="M8854 1463 c-3 -16 -8 -34 -10 -42 -9 -28 17 -90 51 -120 46 -40 101
-42 142 -7 23 20 28 32 28 71 0 37 -5 51 -24 66 -46 37 -99 19 -125 -41 l-14
-34 -21 35 c-15 23 -20 44 -17 67 6 39 -1 43 -10 5z"/>
<path d="M1285 1417 c-20 -16 -28 -35 -32 -69 l-5 -47 -25 30 c-34 40 -92 41
-122 3 -41 -52 -13 -171 50 -217 52 -38 119 2 121 72 l1 31 34 -35 c45 -47 91
-48 135 -4 29 28 30 34 25 83 -14 135 -110 216 -182 153z m150 -89 c18 -44 6
-62 -52 -82 -61 -21 -76 -20 -98 4 -29 32 -10 70 45 92 69 26 89 23 105 -14z"/>
<path d="M9225 1413 c-24 -24 -45 -76 -45 -113 0 -64 70 -91 115 -45 l25 24 0
-29 c0 -39 33 -73 63 -64 12 3 27 11 34 16 21 17 45 79 39 103 -7 27 -43 42
-59 26 -15 -15 4 -47 27 -45 21 2 21 -35 1 -42 -24 -10 -75 16 -81 41 -3 13
-1 33 6 44 6 12 7 21 2 21 -5 0 -14 -11 -20 -25 -15 -32 -52 -41 -91 -21 -32
17 -42 54 -21 86 8 13 11 12 23 -4 19 -26 52 -17 52 14 0 20 -6 26 -26 28 -15
2 -34 -4 -44 -15z"/>
<path d="M2730 1374 c-14 -8 -17 -13 -8 -10 11 3 22 -2 28 -14 9 -18 2 -24
-70 -60 -58 -29 -80 -46 -78 -57 4 -20 74 -40 176 -49 l74 -7 -26 51 -26 51
29 15 c26 14 30 14 35 -1 4 -9 9 -13 12 -10 6 6 -43 107 -52 107 -3 0 -4 -6
-1 -14 6 -15 -38 -40 -54 -31 -13 9 -11 32 4 38 8 4 7 6 -3 6 -8 0 -26 -7 -40
-15z"/>
<path d="M4550 1318 c-31 -33 -41 -64 -30 -93 30 -80 162 2 134 83 -13 38 -73
43 -104 10z"/>
<path d="M184 1283 c-34 -24 -49 -28 -112 -28 -42 0 -72 -4 -72 -10 0 -12 132
-52 201 -61 65 -9 89 6 89 55 0 39 -23 71 -52 71 -8 0 -33 -12 -54 -27z"/>
<path d="M7697 1303 c-15 -25 -25 -87 -17 -108 13 -35 50 -65 80 -65 56 0 91
78 52 113 -27 24 -58 21 -81 -9 l-20 -26 -7 26 c-3 14 -3 37 0 51 6 24 2 33
-7 18z"/>
<path d="M9592 1298 c-14 -14 -16 -54 -4 -62 5 -3 24 -8 42 -11 52 -9 67 -21
121 -96 28 -38 55 -69 60 -67 5 2 26 38 46 81 l37 77 -34 35 c-35 36 -67 50
-36 16 16 -18 16 -22 -11 -85 -15 -36 -30 -66 -33 -66 -3 0 -21 24 -40 53 -84
127 -117 156 -148 125z"/>
<path d="M10068 1295 c-17 -29 -69 -167 -65 -171 3 -3 11 6 19 19 l13 25 140
-59 c76 -32 144 -59 150 -59 13 0 52 116 43 126 -3 3 -10 -9 -16 -25 l-11 -30
-138 56 c-76 31 -139 58 -141 59 -2 1 2 12 8 24 11 21 9 54 -2 35z"/>
<path d="M8385 1278 c-32 -18 -44 -40 -45 -79 0 -73 73 -97 121 -39 l27 32 12
-22 c7 -13 10 -40 7 -64 -5 -39 -5 -40 8 -16 19 34 19 120 -1 148 -18 25 -65
52 -91 52 -10 0 -27 -6 -38 -12z"/>
<path d="M3128 1263 c-60 -38 -68 -111 -18 -155 39 -36 82 -37 117 -2 20 20
24 31 19 57 -3 18 -15 39 -26 48 -17 15 -18 18 -4 23 32 12 63 5 95 -21 18
-15 30 -21 27 -13 -2 7 -21 27 -41 44 -46 37 -127 46 -169 19z"/>
<path d="M3590 1260 c-14 -11 -18 -18 -9 -15 10 4 19 0 22 -9 4 -11 -12 -28
-53 -57 -82 -58 -74 -69 51 -69 54 0 99 3 99 6 0 3 -11 20 -25 38 -24 32 -24
34 -7 49 14 13 21 14 30 5 26 -26 10 9 -19 42 -17 19 -28 29 -24 22 10 -19
-26 -44 -43 -30 -9 8 -9 14 -1 24 16 19 8 17 -21 -6z"/>
<path d="M11760 1268 c0 -7 -21 -77 -46 -156 -25 -79 -42 -148 -37 -151 10 -9
121 -51 134 -51 18 0 8 17 -16 28 -14 6 -25 20 -25 29 0 24 53 203 60 203 4 0
16 -39 29 -87 12 -49 32 -109 43 -136 19 -44 67 -97 89 -97 5 0 9 25 9 57 0
53 -2 58 -40 91 -45 38 -64 71 -105 184 -23 66 -32 78 -58 87 -37 14 -37 14
-37 -1z"/>
<path d="M11150 1243 c-67 -56 -99 -204 -55 -253 51 -58 113 -55 165 8 l30 37
0 -42 c0 -81 68 -123 130 -81 70 48 105 150 73 215 -35 74 -105 77 -158 9
l-25 -31 6 36 c17 102 -89 167 -166 102z m80 -84 c52 -22 66 -44 56 -85 -8
-31 -46 -40 -99 -24 -85 24 -107 58 -71 108 19 28 51 28 114 1z m198 -79 c48
-22 59 -41 44 -76 -15 -31 -52 -32 -112 -1 -31 15 -46 29 -48 45 -8 52 41 66
116 32z"/>
<path d="M10567 1236 c-32 -29 -61 -125 -53 -170 14 -75 104 -113 163 -70 34
24 73 98 73 136 0 15 2 28 5 28 13 0 85 -33 85 -39 0 -4 -11 -36 -25 -71 -33
-84 -32 -106 5 -125 37 -19 38 -19 33 8 -2 12 7 52 21 90 14 37 26 74 26 81 0
11 -131 76 -153 76 -3 0 -8 -15 -11 -33 -9 -48 -40 -77 -82 -77 -71 0 -121 46
-109 100 8 38 32 59 41 36 11 -30 43 -40 65 -20 23 21 24 37 3 58 -22 23 -57
20 -87 -8z"/>
<path d="M1893 1230 c-30 -12 -46 -46 -41 -91 2 -21 3 -39 1 -39 -1 0 -14 11
-29 25 -33 30 -67 32 -94 5 -58 -58 22 -216 91 -180 25 14 25 46 -1 60 -16 8
-24 6 -41 -11 -17 -17 -23 -19 -30 -8 -19 30 -10 59 25 76 45 21 81 11 102
-30 10 -17 19 -27 21 -20 2 7 0 21 -6 32 -18 33 -12 58 20 85 39 34 91 35 113
4 25 -35 21 -57 -10 -55 -33 3 -54 -25 -38 -50 16 -26 40 -27 65 -2 17 17 20
29 16 60 -7 50 -42 106 -81 130 -34 21 -50 22 -83 9z"/>
<path d="M3909 1211 c-35 -35 -37 -70 -6 -106 25 -29 76 -37 102 -15 22 19 19
77 -5 92 -11 7 -20 16 -20 19 0 14 50 15 79 3 40 -17 40 -9 -1 16 -51 31 -113
27 -149 -9z"/>
<path d="M8673 1154 c-21 -21 -25 -32 -20 -66 16 -123 205 -166 233 -53 9 37
-26 96 -72 122 -54 31 -108 30 -141 -3z"/>
<path d="M868 1118 c-64 -22 -75 -37 -26 -34 31 1 33 -1 65 -84 18 -46 32 -88
31 -92 -2 -4 -38 20 -81 52 -126 94 -195 110 -246 56 -71 -75 3 -256 104 -256
36 0 75 28 75 54 0 8 -8 24 -19 37 -16 21 -22 22 -45 11 -21 -9 -26 -19 -26
-47 0 -41 -12 -44 -45 -10 -54 53 -16 133 70 149 47 9 89 -5 190 -66 71 -42
87 -48 104 -38 12 6 21 16 20 23 -1 25 -94 261 -104 263 -5 1 -36 -7 -67 -18z"/>
<path d="M2432 1118 c-25 -12 -37 -45 -30 -82 l5 -24 -31 19 c-40 25 -52 24
-81 -6 -31 -30 -31 -56 -4 -112 20 -42 60 -73 94 -73 25 0 55 38 55 71 l0 30
26 -20 c35 -28 69 -26 99 4 30 29 32 65 6 121 -32 71 -84 98 -139 72z"/>
<path d="M7493 1108 c-20 -26 -22 -50 -9 -83 18 -43 55 -67 98 -63 95 9 50
158 -48 158 -17 0 -36 -6 -41 -12z"/>
<path d="M4938 1079 c-21 -12 -24 -44 -6 -55 9 -6 5 -10 -12 -14 -36 -8 -40
-53 -6 -75 14 -9 35 -15 48 -13 19 2 23 9 22 35 -1 20 2 30 10 27 6 -2 20 2
30 9 29 21 14 65 -29 83 -40 16 -35 16 -57 3z"/>
<path d="M9109 1041 c-24 -44 -30 -47 -60 -30 -14 7 -18 16 -14 30 10 32 0 22
-34 -32 -34 -55 -38 -68 -17 -50 11 9 19 9 35 -1 25 -15 23 -44 -2 -42 -26 3
-20 -10 16 -31 24 -14 29 -15 19 -3 -11 14 -7 48 6 48 3 0 38 -21 79 -46 75
-47 93 -49 93 -11 -1 30 -72 200 -87 204 -6 2 -21 -14 -34 -36z"/>
<path d="M4150 1050 c-16 -16 -18 -25 -10 -45 9 -23 8 -25 -14 -19 -23 5 -56
-16 -56 -37 0 -25 32 -67 60 -79 27 -11 33 -10 51 6 13 12 18 26 15 40 -5 18
-2 20 19 16 62 -11 75 58 20 107 -42 36 -58 38 -85 11z"/>
<path d="M2926 1027 c-20 -14 -24 -49 -12 -87 9 -25 8 -25 -12 -6 -42 37 -102
14 -102 -38 0 -30 36 -85 65 -98 27 -12 55 2 55 29 0 21 -29 27 -49 9 -13 -12
-20 -13 -29 -4 -20 20 -14 37 21 58 41 25 43 25 74 -7 20 -22 24 -23 18 -8
-20 50 -17 72 10 94 36 27 70 27 89 -1 22 -31 20 -38 -8 -38 -30 0 -40 -24
-20 -45 25 -24 54 -2 54 40 0 50 -60 115 -104 115 -18 0 -40 -6 -50 -13z"/>
<path d="M3381 1014 c-20 -14 -22 -23 -18 -57 4 -29 2 -36 -6 -28 -15 15 -60
14 -75 -1 -22 -22 -14 -75 16 -107 55 -61 120 -44 108 27 -5 32 -4 33 13 18
23 -21 64 -20 84 2 58 64 -52 195 -122 146z"/>
<path d="M6931 1018 c-51 -27 -53 -79 -3 -86 18 -3 20 -6 10 -22 -15 -23 4
-50 36 -50 57 0 93 73 42 86 -22 5 -23 8 -13 25 25 40 -24 72 -72 47z"/>
<path d="M3786 1004 c-19 -18 -20 -38 -6 -65 12 -22 7 -24 -21 -9 -25 14 -59
-4 -59 -31 0 -60 68 -112 99 -75 9 10 7 17 -5 27 -14 11 -18 11 -29 -5 -14
-19 -35 -14 -35 8 0 16 32 46 50 46 7 0 22 -7 32 -17 10 -9 18 -11 18 -5 0 6
-4 14 -10 17 -5 3 -10 19 -10 35 0 23 7 33 30 45 28 14 31 14 52 -7 l23 -23
-22 -3 c-14 -2 -23 -10 -23 -22 0 -22 23 -33 39 -17 20 20 12 55 -20 86 -34
35 -78 41 -103 15z"/>
<path d="M9455 978 c-46 -27 -85 -95 -85 -147 0 -62 71 -91 123 -51 l26 21 -6
-34 c-4 -28 -1 -37 22 -55 38 -30 61 -28 100 11 60 60 65 144 11 168 -20 10
-31 8 -58 -8 l-33 -19 3 41 c3 36 0 45 -23 64 -31 24 -51 26 -80 9z"/>
<path d="M7699 944 c-18 -19 -27 -32 -18 -29 19 7 44 -19 34 -35 -4 -6 -14 -9
-23 -5 -13 5 -12 2 3 -15 21 -24 26 -25 19 -6 -13 34 17 22 60 -24 26 -28 52
-47 58 -44 10 6 3 158 -9 177 -3 4 -20 -3 -38 -17 -27 -21 -35 -23 -44 -12 -6
7 -9 21 -5 30 9 24 2 20 -37 -20z"/>
<path d="M8462 865 c-24 -30 -39 -55 -33 -55 5 0 14 8 19 17 8 14 23 5 100
-60 l90 -77 32 40 c29 36 30 56 2 28 -13 -13 -6 -17 -109 67 -69 55 -72 60
-56 77 9 10 12 18 7 18 -5 0 -29 -25 -52 -55z"/>
<path d="M9836 804 c-32 -58 -57 -106 -55 -108 23 -19 99 -55 99 -47 0 5 -8
14 -17 20 -17 9 -15 16 22 85 l40 75 11 -97 c11 -104 21 -132 56 -156 33 -24
63 -19 101 14 42 37 59 76 55 125 -6 68 -80 96 -102 39 -14 -36 39 -60 64 -29
7 8 16 12 21 9 16 -10 9 -50 -12 -73 -18 -19 -29 -22 -57 -18 -65 11 -93 53
-112 167 -10 66 -27 100 -50 100 -3 0 -32 -48 -64 -106z"/>
<path d="M1550 855 c-50 -41 -57 -43 -208 -31 -68 6 -92 4 -92 -4 0 -7 21 -57
47 -112 l47 -100 35 6 c20 3 48 6 64 6 15 0 27 5 27 10 0 6 -13 10 -30 10 -27
0 -33 7 -69 79 -22 43 -38 80 -36 83 2 2 46 -2 97 -8 117 -16 174 -17 199 -4
27 15 25 64 -3 84 -30 21 -30 21 -78 -19z"/>
<path d="M2128 814 c-54 -28 -60 -36 -21 -32 24 3 32 -5 65 -61 20 -36 36 -67
34 -69 -2 -2 -39 15 -81 37 -89 48 -137 53 -180 19 -24 -19 -27 -26 -23 -68 8
-80 76 -149 133 -134 30 7 49 37 40 63 -8 26 -29 32 -53 15 -17 -12 -20 -19
-12 -39 11 -28 1 -32 -31 -14 -27 14 -42 55 -28 80 14 28 68 59 101 59 15 0
61 -13 103 -30 81 -32 93 -34 113 -21 10 6 -1 32 -43 107 -31 54 -59 102 -63
106 -4 3 -28 -5 -54 -18z"/>
<path d="M7959 791 c-22 -21 -39 -48 -39 -59 0 -33 29 -55 65 -49 30 5 31 4
27 -29 -3 -28 0 -35 21 -45 32 -15 81 10 102 52 15 28 15 33 0 56 -14 20 -22
24 -46 19 -27 -5 -28 -4 -17 19 9 19 7 29 -6 50 -25 37 -61 33 -107 -14z"/>
<path d="M4019 794 c-16 -17 -18 -23 -7 -19 11 4 29 -6 55 -30 l38 -36 -50 8
c-100 15 -135 3 -135 -46 0 -55 66 -104 109 -81 22 11 28 44 11 55 -19 12 -41
-15 -29 -36 11 -22 -1 -25 -32 -9 -28 15 -24 55 8 80 22 17 39 21 88 19 92 -3
96 5 34 67 -29 30 -56 54 -59 54 -4 0 -17 -11 -31 -26z"/>
<path d="M262 760 c-41 -25 -72 -76 -72 -118 0 -43 23 -96 49 -114 29 -20 17
-28 -42 -28 -64 0 -113 24 -146 71 -14 21 -29 38 -33 39 -35 1 50 -113 116
-157 61 -42 117 -57 180 -48 88 11 150 55 181 127 21 52 19 86 -11 146 -45 91
-146 128 -222 82z m214 -104 c11 -45 0 -60 -66 -93 -90 -45 -119 -50 -153 -23
-18 15 -27 31 -27 51 0 24 7 32 50 54 68 34 150 55 172 44 10 -5 20 -20 24
-33z"/>
<path d="M8815 745 c-60 -63 -54 -145 12 -161 39 -10 74 6 108 52 29 38 33 40
53 26 29 -19 28 -26 -13 -76 -41 -50 -42 -57 -15 -81 13 -12 20 -14 20 -5 0 7
16 34 36 61 20 27 34 53 32 57 -1 5 -23 26 -47 48 -33 29 -45 35 -49 25 -11
-32 -52 -62 -75 -55 -58 17 -85 75 -50 110 16 16 18 15 27 -5 14 -31 51 -24
51 9 0 20 -6 26 -28 28 -22 3 -36 -5 -62 -33z"/>
<path d="M10374 741 c-45 -20 -84 -83 -84 -135 0 -92 91 -152 173 -115 32 15
70 83 62 110 -6 18 -5 19 15 7 50 -31 76 -112 55 -177 -5 -16 -4 -21 4 -17 14
9 31 73 31 121 0 93 -47 171 -125 206 -51 23 -80 23 -131 0z m51 -65 c28 -13
58 -31 68 -40 23 -23 22 -59 -2 -80 -19 -17 -22 -17 -75 7 -31 14 -67 37 -81
51 -22 22 -24 29 -14 48 23 45 36 46 104 14z"/>
<path d="M3165 724 c-25 -21 -26 -24 -9 -19 17 4 31 -5 62 -42 23 -26 39 -49
37 -51 -2 -2 -31 5 -64 17 -81 28 -116 27 -147 -5 -20 -19 -24 -31 -19 -52 10
-40 52 -91 81 -98 54 -14 97 34 59 66 -22 18 -47 -5 -39 -36 7 -28 -3 -30 -34
-8 -31 22 -28 57 9 88 35 30 64 32 146 11 49 -13 59 -13 71 -1 12 12 6 24 -43
85 -31 39 -62 71 -69 71 -6 0 -24 -12 -41 -26z"/>
<path d="M2713 698 c-35 -44 -53 -51 -144 -59 -50 -4 -93 -10 -96 -13 -10 -9
91 -156 107 -155 8 0 33 6 55 14 39 12 39 13 10 14 -25 1 -36 11 -67 59 l-38
57 43 7 c23 3 70 7 103 7 80 1 115 25 96 65 -14 32 -44 34 -69 4z"/>
<path d="M4592 708 c-46 -23 -37 -101 13 -114 24 -6 24 -7 8 -20 -10 -7 -36
-14 -58 -14 -32 -1 -36 -3 -20 -10 33 -14 99 -11 123 6 24 17 52 64 52 88 0
23 -42 65 -70 70 -14 3 -35 0 -48 -6z"/>
<path d="M10911 683 c-28 -99 -3 -208 61 -273 70 -70 168 -83 244 -33 31 20
64 91 64 137 0 78 -64 146 -137 146 -58 0 -123 -67 -123 -129 0 -32 -1 -33
-22 -19 -13 8 -34 30 -46 49 -20 29 -23 44 -20 97 4 70 -6 81 -21 25z m255
-134 c35 -16 72 -41 81 -55 15 -24 15 -27 -4 -52 -26 -33 -52 -33 -133 4 -60
27 -80 52 -71 94 10 48 41 51 127 9z"/>
<path d="M8242 627 l-62 -63 31 -29 c26 -25 30 -27 25 -10 -5 16 4 31 35 60
l42 40 -7 -30 c-16 -76 -17 -140 -2 -159 26 -33 74 -25 113 17 35 39 41 63 20
91 -17 23 -52 17 -52 -9 0 -16 6 -20 28 -18 32 2 34 -6 9 -37 -25 -31 -66 -21
-88 22 -13 24 -15 46 -10 98 10 100 -5 105 -82 27z"/>
<path d="M5384 631 c-74 -34 -81 -123 -12 -152 25 -10 33 -9 56 8 50 37 30
103 -31 103 -17 0 -18 2 -6 17 8 9 27 22 44 29 23 10 25 13 10 13 -11 0 -39
-8 -61 -18z"/>
<path d="M7757 622 c-28 -31 -49 -93 -43 -127 6 -32 46 -77 79 -88 24 -9 83
16 96 41 28 52 -3 112 -57 112 -16 0 -36 -8 -45 -18 -22 -24 -22 -38 0 -16 16
15 19 14 50 -20 36 -39 41 -57 18 -76 -19 -16 -38 -2 -77 59 -32 51 -35 90
-12 126 19 29 14 33 -9 7z"/>
<path d="M11546 615 c-32 -30 -62 -94 -72 -152 -13 -84 41 -163 114 -163 30 0
43 8 82 48 l46 47 0 -53 c0 -49 3 -57 33 -84 26 -24 40 -29 62 -24 47 9 76 35
104 89 33 67 34 125 1 156 -32 30 -73 22 -82 -14 -9 -36 13 -58 53 -53 28 3
33 1 33 -17 0 -32 -28 -65 -56 -65 -37 0 -104 38 -114 65 -8 22 -4 51 15 98
14 35 -15 16 -35 -23 -23 -45 -45 -60 -91 -60 -40 0 -115 43 -124 70 -9 27 2
70 24 99 l19 24 16 -31 c29 -56 96 -37 96 27 0 45 -81 56 -124 16z"/>
<path d="M9193 593 c-52 -120 19 -253 134 -253 38 0 51 6 79 34 29 29 34 41
34 81 0 118 -138 143 -183 32 l-13 -31 -23 46 c-22 46 -22 86 2 116 6 8 6 12
-2 12 -7 0 -19 -17 -28 -37z"/>
<path d="M5600 590 c-25 -25 -25 -34 1 -59 l21 -19 -22 -7 c-30 -10 -23 -55
12 -74 54 -31 121 28 72 63 -16 12 -15 14 8 19 46 12 44 58 -2 82 -39 20 -66
19 -90 -5z"/>
<path d="M1154 578 c4 -13 9 -30 12 -38 4 -11 -40 -37 -166 -100 -95 -47 -174
-88 -176 -92 -4 -6 68 -134 84 -148 5 -5 1 11 -14 59 -5 17 16 31 155 100 88
45 163 81 166 81 2 0 11 -13 20 -30 9 -16 20 -30 25 -30 6 0 -15 50 -45 110
-52 104 -76 138 -61 88z"/>
<path d="M6105 555 c-31 -30 -31 -49 -4 -76 15 -15 29 -20 50 -15 26 5 27 3
20 -17 -4 -12 -20 -28 -35 -35 -15 -8 -25 -16 -23 -19 9 -9 78 30 92 51 37 59
9 136 -50 136 -14 0 -37 -11 -50 -25z"/>
<path d="M3825 490 c-29 -32 -24 -78 13 -111 30 -27 31 -29 13 -39 -25 -13
-67 -13 -92 0 -11 6 -19 7 -19 1 0 -13 75 -41 111 -41 102 0 168 118 103 184
-34 33 -101 37 -129 6z"/>
<path d="M1710 462 c-75 -38 -89 -125 -29 -185 17 -16 28 -31 26 -34 -9 -9
-77 -15 -101 -9 -14 3 -41 20 -61 37 -24 22 -35 26 -35 16 0 -27 90 -96 147
-113 85 -25 153 -5 210 59 44 50 50 97 21 155 -17 35 -34 53 -68 70 -53 27
-65 27 -110 4z m154 -64 c21 -30 20 -43 -6 -68 -69 -64 -146 -82 -169 -38 -17
31 -2 53 63 91 72 43 91 45 112 15z"/>
<path d="M5106 474 c16 -7 5 -44 -12 -44 -8 0 -14 8 -15 18 0 14 -2 14 -9 -3
-11 -25 -12 -44 -2 -28 4 7 13 9 20 4 10 -6 8 -20 -9 -65 -31 -85 -16 -91 71
-32 38 27 70 51 70 55 0 4 -16 13 -35 20 -39 14 -42 22 -20 44 13 13 11 16
-17 26 -30 11 -66 15 -42 5z"/>
<path d="M9615 445 c-104 -110 -39 -259 80 -185 l33 20 -5 -39 c-9 -68 50
-103 107 -64 38 26 59 55 66 89 11 59 -34 98 -67 58 -17 -21 1 -49 30 -48 23
1 26 -8 11 -37 -15 -26 -52 -24 -84 6 -29 27 -33 60 -11 91 23 34 5 36 -22 3
-30 -35 -72 -38 -113 -9 -38 27 -45 52 -25 90 17 33 45 40 45 11 0 -24 25 -34
51 -21 21 12 25 40 7 58 -24 24 -69 14 -103 -23z"/>
<path d="M8550 440 c-51 -54 -44 -126 15 -154 33 -16 37 -16 70 0 21 10 38 26
41 40 5 19 9 22 20 13 23 -19 28 -74 10 -110 -19 -38 -20 -42 -5 -33 20 12 49
88 49 127 0 119 -128 194 -200 117z"/>
<path d="M3464 441 c17 -19 15 -23 -76 -110 l-93 -91 39 -35 c44 -40 51 -43
34 -15 -12 18 -5 28 72 105 76 76 86 83 100 70 9 -8 21 -15 25 -15 5 0 -15 25
-45 55 -30 30 -59 55 -64 55 -5 0 -1 -9 8 -19z"/>
<path d="M6743 420 c-48 -29 -45 -79 5 -95 22 -6 23 -8 6 -26 -15 -17 -16 -20
0 -44 21 -31 63 -33 100 -4 34 27 33 72 -1 77 -26 4 -30 17 -8 26 9 3 15 18
15 35 0 52 -59 67 -117 31z"/>
<path d="M7456 418 c-66 -94 70 -243 149 -163 61 60 -4 185 -96 185 -28 0 -42
-6 -53 -22z"/>
<path d="M8024 430 c-32 -13 -74 -69 -74 -99 0 -49 46 -74 92 -50 19 10 20 9
13 -7 -16 -40 -17 -55 -5 -69 33 -40 134 11 128 64 -4 30 -35 41 -45 15 -4
-10 0 -22 11 -30 21 -15 13 -34 -14 -34 -21 0 -50 36 -50 62 0 9 10 24 23 34
19 14 19 15 2 9 -45 -17 -66 -17 -85 0 -29 26 -34 54 -14 76 22 24 30 24 37
-1 6 -23 42 -27 51 -5 6 16 -19 45 -37 44 -7 0 -21 -4 -33 -9z"/>
<path d="M2420 421 c0 -6 5 -13 10 -16 24 -15 3 -36 -115 -121 -69 -49 -125
-93 -125 -97 0 -11 73 -97 82 -97 5 0 1 11 -8 26 -10 14 -13 28 -8 33 27 24
225 161 233 161 4 0 15 -10 24 -22 8 -13 18 -20 21 -17 6 6 -100 159 -110 159
-2 0 -4 -4 -4 -9z"/>
<path d="M4494 411 c-20 -12 -38 -36 -49 -65 -16 -43 -16 -46 1 -83 15 -29 26
-39 48 -41 48 -6 75 7 100 46 36 54 38 110 6 142 -25 25 -66 25 -106 1z"/>
<path d="M2866 379 c-37 -43 -34 -83 8 -125 32 -32 33 -35 16 -44 -30 -16 -82
-11 -117 10 -47 28 -40 10 9 -24 49 -35 138 -47 188 -26 133 55 103 240 -38
240 -33 0 -45 -6 -66 -31z"/>
<path d="M6193 306 c-24 -21 -28 -31 -27 -77 0 -46 4 -56 33 -81 37 -33 63
-31 100 10 33 36 26 115 -13 149 -34 29 -58 29 -93 -1z"/>
<path d="M4112 277 c-40 -42 -28 -87 33 -126 42 -27 42 -27 24 -49 l-18 -23
-42 31 c-50 36 -60 37 -85 8 -10 -12 -13 -18 -7 -14 8 4 32 -6 57 -23 25 -17
51 -31 58 -31 7 0 26 19 42 41 23 33 26 43 15 50 -8 5 -17 9 -22 9 -4 0 -12
11 -18 24 -8 18 -7 30 5 54 18 36 47 48 76 32 24 -13 25 -19 3 -35 -19 -14
-11 -45 12 -45 20 0 29 23 21 53 -6 26 -72 67 -108 67 -14 0 -34 -10 -46 -23z"/>
<path d="M8910 252 c-100 -100 58 -299 188 -235 45 22 64 56 58 106 -9 79 -82
147 -166 155 -44 4 -52 2 -80 -26z m129 -74 c83 -73 103 -106 81 -133 -21 -25
-37 -18 -121 56 -89 79 -109 109 -89 134 22 27 45 17 129 -57z"/>
<path d="M4773 250 c-62 -38 -77 -115 -29 -156 54 -47 136 -20 136 45 0 31
-38 71 -69 71 -11 1 -8 8 13 26 23 20 36 25 60 20 22 -4 27 -3 16 4 -25 16
-93 11 -127 -10z"/>
<path d="M10056 241 c-31 -34 -17 -63 38 -82 61 -22 78 -38 113 -105 24 -45
43 -68 43 -49 0 13 -103 222 -117 237 -21 23 -55 23 -77 -1z"/>
<path d="M7693 194 c-24 -14 -43 -31 -43 -36 0 -7 4 -7 13 0 9 7 17 4 30 -14
17 -22 17 -24 -1 -33 -13 -7 -23 -6 -32 2 -7 7 -5 0 5 -16 9 -15 19 -27 22
-27 2 0 2 4 -1 9 -6 8 22 38 27 30 2 -2 18 -28 36 -57 34 -54 72 -70 85 -36 7
19 8 184 1 184 -3 0 -23 -11 -43 -24 -38 -24 -39 -24 -51 -4 -9 15 -9 23 0 34
17 21 -1 16 -48 -12z"/>
<path d="M549 157 c-42 -28 -59 -60 -59 -114 0 -42 1 -43 34 -43 23 0 39 7 48
19 23 33 81 61 125 61 35 0 45 -5 62 -29 12 -16 21 -34 21 -40 0 -6 5 -11 10
-11 40 0 -50 133 -112 166 -40 21 -90 17 -129 -9z"/>
<path d="M3671 163 c-40 -20 -80 -77 -88 -127 -5 -31 -3 -36 14 -36 11 0 34
20 55 47 20 27 53 64 73 83 29 28 39 32 53 24 29 -19 25 -40 -23 -98 l-45 -56
45 0 c43 0 47 2 61 36 42 100 -44 176 -145 127z"/>
<path d="M5044 154 c-16 -24 -16 -26 3 -53 l21 -27 -29 -11 c-22 -9 -29 -18
-29 -37 0 -40 42 -36 57 5 15 40 49 37 46 -4 -1 -22 2 -27 23 -27 27 0 34 27
9 36 -23 9 -18 19 12 21 31 1 55 29 51 58 -4 29 -64 65 -109 65 -30 0 -42 -6
-55 -26z"/>
</g>
</svg>
